<svg width="677" height="460" viewBox="0 0 677 460" fill="none" xmlns="http://www.w3.org/2000/svg">
<rect width="677" height="459.917" fill="white"/>
<rect width="677" height="86.1154" fill="white"/>
<path d="M493.612 51.1537C492.076 51.1537 490.78 50.9617 489.724 50.5777C488.668 50.1937 487.868 49.6177 487.324 48.8497C486.796 48.0657 486.532 47.0897 486.532 45.9217C486.532 45.3297 486.62 44.7217 486.796 44.0977C486.972 43.4577 487.204 42.8097 487.492 42.1537C487.556 41.9937 487.636 41.8817 487.732 41.8177C487.828 41.7537 487.988 41.7697 488.212 41.8657L489.46 42.3217C489.652 42.3857 489.772 42.4657 489.82 42.5617C489.868 42.6577 489.86 42.8097 489.796 43.0177C489.652 43.4337 489.516 43.8417 489.388 44.2417C489.276 44.6417 489.22 45.0497 489.22 45.4657C489.22 46.4257 489.62 47.0897 490.42 47.4577C491.22 47.8097 492.364 47.9857 493.852 47.9857H498.892C499.82 47.9857 500.604 47.9217 501.244 47.7937C501.884 47.6657 502.364 47.4337 502.684 47.0977C503.02 46.7457 503.188 46.2337 503.188 45.5617C503.188 45.0017 503.092 44.4177 502.9 43.8097L502.516 42.4177C502.452 42.1777 502.452 42.0017 502.516 41.8897C502.58 41.7617 502.708 41.6737 502.9 41.6257L504.412 41.3137C504.636 41.2497 504.796 41.2817 504.892 41.4097C505.004 41.5217 505.084 41.6977 505.132 41.9377L505.612 43.7377C505.708 44.0737 505.772 44.4177 505.804 44.7697C505.852 45.1057 505.876 45.4577 505.876 45.8257C505.876 47.1857 505.572 48.2497 504.964 49.0177C504.372 49.7857 503.524 50.3377 502.42 50.6737C501.332 50.9937 500.052 51.1537 498.58 51.1537H493.612ZM494.644 41.4337C494.564 41.5297 494.46 41.5777 494.332 41.5777C494.204 41.5777 494.084 41.5217 493.972 41.4097L492.94 40.3777C492.844 40.2657 492.796 40.1537 492.796 40.0417C492.796 39.9137 492.844 39.7937 492.94 39.6817L493.972 38.6497C494.084 38.5377 494.204 38.4817 494.332 38.4817C494.46 38.4817 494.564 38.5377 494.644 38.6497L495.7 39.6817C495.812 39.7777 495.868 39.8977 495.868 40.0417C495.884 40.1697 495.836 40.2897 495.724 40.4017L494.644 41.4337ZM498.292 41.4337C498.196 41.5457 498.084 41.5937 497.956 41.5777C497.828 41.5617 497.716 41.5057 497.62 41.4097L496.54 40.3777C496.444 40.2817 496.396 40.1697 496.396 40.0417C496.396 39.8977 496.444 39.7777 496.54 39.6817L497.62 38.6497C497.716 38.5377 497.82 38.4817 497.932 38.4817C498.044 38.4817 498.156 38.5377 498.268 38.6497L499.324 39.6817C499.436 39.7777 499.492 39.8977 499.492 40.0417C499.492 40.1697 499.436 40.2897 499.324 40.4017L498.292 41.4337ZM514.466 51.1537H513.602C512.722 51.1537 511.978 51.0017 511.37 50.6977C510.762 50.3777 510.298 49.8657 509.978 49.1617C509.658 48.4577 509.498 47.5217 509.498 46.3537V33.6337C509.498 33.4577 509.546 33.3217 509.642 33.2257C509.754 33.1137 509.914 33.0577 510.122 33.0577H511.586C511.778 33.0577 511.914 33.1137 511.994 33.2257C512.074 33.3217 512.114 33.4497 512.114 33.6097V45.4897C512.114 46.1777 512.186 46.7057 512.33 47.0737C512.49 47.4257 512.738 47.6657 513.074 47.7937C513.41 47.9217 513.834 47.9857 514.346 47.9857H514.826C515.066 47.9857 515.186 48.1057 515.186 48.3457V50.4337C515.186 50.9137 514.946 51.1537 514.466 51.1537ZM514.435 51.1537C514.339 51.1537 514.259 51.1217 514.195 51.0577C514.131 51.0097 514.099 50.8977 514.099 50.7217V48.5857C514.099 48.3617 514.163 48.2097 514.291 48.1297C514.419 48.0337 514.587 47.9857 514.795 47.9857C515.579 47.9697 516.243 47.9457 516.787 47.9137C517.331 47.8817 517.811 47.8257 518.227 47.7457C518.659 47.6657 519.083 47.5777 519.499 47.4817L516.955 45.2977C516.731 45.0897 516.579 44.8977 516.499 44.7217C516.435 44.5457 516.403 44.3137 516.403 44.0257V42.9457C516.403 42.6097 516.467 42.3617 516.595 42.2017C516.739 42.0257 516.931 41.8817 517.171 41.7697C517.939 41.4017 518.747 41.1377 519.595 40.9777C520.459 40.8017 521.307 40.7137 522.139 40.7137C523.995 40.7137 525.355 40.9937 526.219 41.5537C527.099 42.1137 527.539 42.8577 527.539 43.7857C527.539 44.2657 527.427 44.7137 527.203 45.1297C526.995 45.5297 526.675 45.9217 526.243 46.3057C525.811 46.6737 525.299 47.0897 524.707 47.5537C525.123 47.7137 525.571 47.8257 526.051 47.8897C526.547 47.9537 527.027 47.9857 527.491 47.9857H529.459C529.715 47.9857 529.843 48.1057 529.843 48.3457V50.4097C529.843 50.9057 529.587 51.1537 529.075 51.1537H527.851C527.099 51.1537 526.435 51.1297 525.859 51.0817C525.299 51.0337 524.787 50.9537 524.323 50.8417C523.875 50.7137 523.451 50.5537 523.051 50.3617C522.667 50.1537 522.267 49.9057 521.851 49.6177C521.387 49.9057 520.939 50.1457 520.507 50.3377C520.075 50.5297 519.595 50.6897 519.067 50.8177C518.555 50.9457 517.923 51.0337 517.171 51.0817C516.435 51.1297 515.523 51.1537 514.435 51.1537ZM522.211 46.8817C522.979 46.4177 523.603 45.9857 524.083 45.5857C524.563 45.1697 524.811 44.8017 524.827 44.4817C524.827 44.2737 524.739 44.0817 524.563 43.9057C524.403 43.7137 524.123 43.5617 523.723 43.4497C523.339 43.3377 522.803 43.2817 522.115 43.2817C521.603 43.2817 521.067 43.3377 520.507 43.4497C519.963 43.5457 519.387 43.7137 518.779 43.9537L522.211 46.8817ZM529.131 51.1537C528.891 51.1537 528.771 51.0257 528.771 50.7697V48.7057C528.771 48.2257 529.011 47.9857 529.491 47.9857C530.387 47.9857 531.011 47.8017 531.363 47.4337C531.715 47.0657 531.891 46.4097 531.891 45.4657V43.2337C531.891 42.8337 532.083 42.6337 532.467 42.6337H534.003C534.403 42.6337 534.603 42.8337 534.603 43.2337V45.4657C534.603 46.0897 534.683 46.5857 534.843 46.9537C535.019 47.3217 535.315 47.5857 535.731 47.7457C536.147 47.9057 536.723 47.9857 537.459 47.9857C537.699 47.9857 537.819 48.1057 537.819 48.3457V50.4337C537.819 50.9137 537.579 51.1537 537.099 51.1537C536.059 51.1537 535.163 51.0017 534.411 50.6977C533.659 50.3937 533.091 49.8417 532.707 49.0417C532.403 49.8257 531.931 50.3777 531.291 50.6977C530.651 51.0017 529.931 51.1537 529.131 51.1537ZM531.915 55.6897C531.835 55.7697 531.731 55.8017 531.603 55.7857C531.475 55.7857 531.363 55.7457 531.267 55.6657L530.235 54.6577C530.155 54.5617 530.107 54.4497 530.091 54.3217C530.091 54.1937 530.139 54.0817 530.235 53.9857L531.267 52.9537C531.363 52.8577 531.467 52.8097 531.579 52.8097C531.707 52.8097 531.819 52.8577 531.915 52.9537L532.923 53.9857C533.035 54.0817 533.091 54.1937 533.091 54.3217C533.107 54.4497 533.059 54.5697 532.947 54.6817L531.915 55.6897ZM535.251 55.6897C535.171 55.7697 535.067 55.8017 534.939 55.7857C534.811 55.7857 534.699 55.7457 534.603 55.6657L533.547 54.6577C533.467 54.5617 533.427 54.4417 533.427 54.2977C533.427 54.1697 533.467 54.0657 533.547 53.9857L534.603 52.9537C534.699 52.8577 534.803 52.8097 534.915 52.8097C535.043 52.8097 535.147 52.8577 535.227 52.9537L536.235 53.9857C536.347 54.0817 536.403 54.1937 536.403 54.3217C536.419 54.4497 536.371 54.5697 536.259 54.6817L535.251 55.6897ZM537.1 51.1537C536.86 51.1537 536.74 51.0257 536.74 50.7697V48.7057C536.74 48.2257 536.98 47.9857 537.46 47.9857H537.7C538.388 47.9857 538.9 47.8177 539.236 47.4817C539.588 47.1297 539.764 46.4897 539.764 45.5617V43.2337C539.764 42.8177 539.956 42.6097 540.34 42.6097H541.78C542.164 42.6097 542.356 42.8177 542.356 43.2337V45.5617C542.356 46.5057 542.564 47.1457 542.98 47.4817C543.396 47.8177 544.004 47.9857 544.804 47.9857H545.14C545.38 47.9857 545.5 48.1057 545.5 48.3457V50.4337C545.5 50.9137 545.26 51.1537 544.78 51.1537C543.964 51.1537 543.204 51.0017 542.5 50.6977C541.796 50.3937 541.228 49.8417 540.796 49.0417C540.428 49.8737 539.908 50.4337 539.236 50.7217C538.564 51.0097 537.852 51.1537 537.1 51.1537ZM541.3 55.6657C541.204 55.7457 541.092 55.7777 540.964 55.7617C540.836 55.7617 540.716 55.7217 540.604 55.6417L539.572 54.5857C539.476 54.5057 539.428 54.3937 539.428 54.2497C539.428 54.1217 539.476 54.0097 539.572 53.9137L540.604 52.8577C540.716 52.7617 540.828 52.7137 540.94 52.7137C541.068 52.7137 541.18 52.7617 541.276 52.8577L542.308 53.9137C542.42 54.0097 542.476 54.1217 542.476 54.2497C542.492 54.3937 542.444 54.5137 542.332 54.6097L541.3 55.6657ZM552.804 51.3217C552.42 51.3217 552.052 51.2897 551.7 51.2257C551.348 51.1617 550.988 51.0577 550.62 50.9137C550.252 50.7697 549.844 50.5857 549.396 50.3617C548.964 50.1217 548.46 49.8257 547.884 49.4737C547.58 49.9217 547.252 50.2737 546.9 50.5297C546.564 50.7697 546.212 50.9377 545.844 51.0337C545.492 51.1137 545.14 51.1537 544.788 51.1537C544.548 51.1537 544.428 51.0337 544.428 50.7937V48.7057C544.428 48.2257 544.668 47.9857 545.148 47.9857C545.42 47.9857 545.652 47.9377 545.844 47.8417C546.036 47.7457 546.236 47.5617 546.444 47.2897C546.668 47.0177 546.924 46.6017 547.212 46.0417C547.772 44.9537 548.324 44.1217 548.868 43.5457C549.428 42.9537 549.988 42.5457 550.548 42.3217C551.108 42.0817 551.668 41.9617 552.228 41.9617C552.852 41.9617 553.444 42.0737 554.004 42.2977C554.564 42.5217 555.068 42.9057 555.516 43.4497C555.98 43.9937 556.396 44.7537 556.764 45.7297C557.004 46.3377 557.236 46.8097 557.46 47.1457C557.684 47.4657 557.94 47.6897 558.228 47.8177C558.532 47.9297 558.908 47.9857 559.356 47.9857C559.596 47.9857 559.716 48.1057 559.716 48.3457V50.4337C559.716 50.9137 559.476 51.1537 558.996 51.1537C558.388 51.1537 557.844 51.0337 557.364 50.7937C556.9 50.5537 556.476 50.1217 556.092 49.4977C555.772 50.1537 555.308 50.6257 554.7 50.9137C554.108 51.1857 553.476 51.3217 552.804 51.3217ZM552.876 48.4657C553.276 48.4657 553.62 48.3617 553.908 48.1537C554.196 47.9297 554.348 47.5537 554.364 47.0257C554.364 46.5937 554.26 46.1857 554.052 45.8017C553.86 45.4177 553.596 45.1057 553.26 44.8657C552.924 44.6257 552.564 44.5057 552.18 44.5057C551.876 44.5057 551.572 44.5777 551.268 44.7217C550.98 44.8497 550.676 45.0977 550.356 45.4657C550.036 45.8337 549.66 46.3617 549.228 47.0497C549.948 47.4337 550.516 47.7297 550.932 47.9377C551.348 48.1297 551.692 48.2657 551.964 48.3457C552.252 48.4257 552.556 48.4657 552.876 48.4657ZM558.991 51.1537C558.751 51.1537 558.631 51.0337 558.631 50.7937V48.7057C558.631 48.2257 558.871 47.9857 559.351 47.9857C559.879 47.9857 560.311 47.9137 560.647 47.7697C560.983 47.6097 561.223 47.3377 561.367 46.9537C561.527 46.5537 561.607 45.9857 561.607 45.2497V33.6097C561.607 33.4497 561.655 33.3217 561.751 33.2257C561.863 33.1137 561.999 33.0577 562.159 33.0577H563.671C563.847 33.0577 563.983 33.1137 564.079 33.2257C564.175 33.3217 564.223 33.4497 564.223 33.6097V45.1297C564.223 46.1537 564.135 47.0497 563.959 47.8177C563.783 48.5857 563.487 49.2177 563.071 49.7137C562.671 50.2097 562.135 50.5777 561.463 50.8177C560.807 51.0417 559.983 51.1537 558.991 51.1537ZM569.232 51.1777C569.072 51.1777 568.936 51.1297 568.824 51.0337C568.728 50.9217 568.68 50.7857 568.68 50.6257V33.6097C568.68 33.4497 568.728 33.3217 568.824 33.2257C568.936 33.1137 569.072 33.0577 569.232 33.0577H570.744C570.92 33.0577 571.056 33.1137 571.152 33.2257C571.248 33.3217 571.296 33.4497 571.296 33.6097V50.6257C571.296 50.7857 571.248 50.9217 571.152 51.0337C571.056 51.1297 570.92 51.1777 570.744 51.1777H569.232ZM581.024 58.3777C580.656 58.3777 580.472 58.1937 580.472 57.8257V51.2497C580.472 50.0177 580.704 49.0897 581.168 48.4657C581.632 47.8417 582.232 47.4737 582.968 47.3617C583.24 46.0817 583.656 45.0497 584.216 44.2657C584.776 43.4657 585.416 42.8817 586.136 42.5137C586.856 42.1457 587.584 41.9697 588.32 41.9857C589.408 42.0017 590.28 42.3297 590.936 42.9697C591.608 43.6097 592.144 44.5217 592.544 45.7057C592.736 46.2817 592.944 46.7377 593.168 47.0737C593.392 47.4097 593.68 47.6497 594.032 47.7937C594.4 47.9217 594.872 47.9857 595.448 47.9857C595.688 47.9857 595.808 48.1057 595.808 48.3457V50.4337C595.808 50.9137 595.568 51.1537 595.088 51.1537C594.288 51.1537 593.624 51.0097 593.096 50.7217C592.568 50.4177 592.08 49.9057 591.632 49.1857C591.376 49.6977 591 50.1217 590.504 50.4577C590.024 50.7777 589.416 50.9777 588.68 51.0577C587.944 51.1377 587.088 51.0577 586.112 50.8177L584.48 50.4337C583.952 50.3057 583.584 50.3537 583.376 50.5777C583.184 50.7857 583.088 51.1777 583.088 51.7537V57.8257C583.088 58.1937 582.904 58.3777 582.536 58.3777H581.024ZM588.008 48.3457C588.664 48.3297 589.152 48.1697 589.472 47.8657C589.808 47.5457 589.976 47.1537 589.976 46.6897C589.976 46.0657 589.792 45.5617 589.424 45.1777C589.056 44.7937 588.592 44.6017 588.032 44.6017C587.456 44.6017 586.904 44.8657 586.376 45.3937C585.864 45.9057 585.48 46.6977 585.224 47.7697C585.848 47.9617 586.368 48.1057 586.784 48.2017C587.2 48.2817 587.608 48.3297 588.008 48.3457ZM595.084 51.1537C594.844 51.1537 594.724 51.0337 594.724 50.7937V48.7057C594.724 48.2257 594.964 47.9857 595.444 47.9857H599.572C600.884 47.9857 602.02 47.8497 602.98 47.5777C603.956 47.3057 604.94 46.8657 605.932 46.2577L608.26 44.7937L609.772 45.6817L606.556 48.2257C605.98 48.6737 605.324 49.1297 604.588 49.5937C603.868 50.0417 603.02 50.4177 602.044 50.7217C601.068 51.0097 599.908 51.1537 598.564 51.1537H595.084ZM612.196 51.1537C611.316 51.1537 610.524 51.0337 609.82 50.7937C609.132 50.5377 608.556 50.0977 608.092 49.4737C607.628 48.8337 607.316 47.9617 607.156 46.8577L608.764 45.3697C608.764 45.9937 608.828 46.4817 608.956 46.8337C609.084 47.1857 609.268 47.4417 609.508 47.6017C609.748 47.7617 610.036 47.8657 610.372 47.9137C610.708 47.9617 611.1 47.9857 611.548 47.9857H613.3C613.428 47.9857 613.516 48.0337 613.564 48.1297C613.628 48.2097 613.66 48.3057 613.66 48.4177V50.5057C613.66 50.7297 613.596 50.8977 613.468 51.0097C613.34 51.1057 613.164 51.1537 612.94 51.1537H612.196ZM609.244 46.0657L609.052 46.0177C608.204 46.0177 607.476 45.9457 606.868 45.8017C606.26 45.6417 605.716 45.4497 605.236 45.2257C604.756 45.0017 604.3 44.7777 603.868 44.5537C603.452 44.3297 603.012 44.1457 602.548 44.0017C602.084 43.8417 601.564 43.7617 600.988 43.7617C600.508 43.7617 600.116 43.8497 599.812 44.0257C599.524 44.1857 599.292 44.3857 599.116 44.6257C598.972 44.8177 598.844 44.9537 598.732 45.0337C598.636 45.0977 598.46 45.1297 598.204 45.1297H597.244C596.796 45.1297 596.572 44.9377 596.572 44.5537C596.572 44.1377 596.676 43.7217 596.884 43.3057C597.092 42.8897 597.388 42.5137 597.772 42.1777C598.156 41.8257 598.62 41.5457 599.164 41.3377C599.724 41.1297 600.348 41.0257 601.036 41.0257C601.74 41.0257 602.364 41.1057 602.908 41.2657C603.468 41.4257 603.996 41.6257 604.492 41.8657C604.988 42.0897 605.476 42.3217 605.956 42.5617C606.452 42.7857 606.988 42.9777 607.564 43.1377C608.156 43.2977 608.828 43.3777 609.58 43.3777H610.66C610.9 43.3777 611.052 43.4257 611.116 43.5217C611.196 43.6177 611.236 43.7857 611.236 44.0257V45.4417C611.236 45.6337 611.18 45.7857 611.068 45.8977C610.956 46.0097 610.796 46.0657 610.588 46.0657H609.244ZM606.34 54.3457C606.244 54.4257 606.132 54.4577 606.004 54.4417C605.876 54.4417 605.756 54.4017 605.644 54.3217L604.612 53.2657C604.516 53.1857 604.468 53.0737 604.468 52.9297C604.468 52.8017 604.516 52.6897 604.612 52.5937L605.644 51.5377C605.756 51.4417 605.868 51.3937 605.98 51.3937C606.108 51.3937 606.22 51.4417 606.316 51.5377L607.348 52.5937C607.46 52.6897 607.516 52.8017 607.516 52.9297C607.532 53.0737 607.484 53.1937 607.372 53.2897L606.34 54.3457ZM612.944 51.1537C612.704 51.1537 612.584 51.0337 612.584 50.7937V48.7057C612.584 48.2257 612.824 47.9857 613.304 47.9857H617.192C618.136 47.9857 618.968 47.9137 619.688 47.7697C620.424 47.6097 621.112 47.3857 621.752 47.0977C622.408 46.7937 623.072 46.4337 623.744 46.0177L625.856 44.6977L627.944 45.8737L623.792 48.6817C623.2 49.0817 622.656 49.4337 622.16 49.7377C621.68 50.0417 621.176 50.2977 620.648 50.5057C620.12 50.7137 619.528 50.8737 618.872 50.9857C618.232 51.0977 617.464 51.1537 616.568 51.1537H612.944ZM626.984 46.4737V46.1617C626.152 46.1617 625.432 46.0897 624.824 45.9457C624.216 45.7857 623.672 45.5937 623.192 45.3697C622.712 45.1297 622.256 44.8977 621.824 44.6737C621.408 44.4337 620.968 44.2337 620.504 44.0737C620.056 43.9137 619.536 43.8337 618.944 43.8337C618.48 43.8337 618.096 43.9137 617.792 44.0737C617.504 44.2337 617.264 44.4417 617.072 44.6977C616.912 44.8737 616.776 45.0017 616.664 45.0817C616.568 45.1617 616.4 45.2017 616.16 45.2017H615.2C614.752 45.2017 614.528 45.0097 614.528 44.6257C614.528 44.0017 614.704 43.4257 615.056 42.8977C615.424 42.3537 615.944 41.9217 616.616 41.6017C617.288 41.2657 618.08 41.0977 618.992 41.0977C619.696 41.0977 620.32 41.1857 620.864 41.3617C621.424 41.5377 621.944 41.7537 622.424 42.0097C622.92 42.2657 623.416 42.5217 623.912 42.7777C624.408 43.0337 624.944 43.2497 625.52 43.4257C626.096 43.6017 626.768 43.6897 627.536 43.6897H628.592C628.848 43.6897 629.008 43.7377 629.072 43.8337C629.152 43.9297 629.192 44.0977 629.192 44.3377V45.8497C629.192 46.0417 629.128 46.1937 629 46.3057C628.888 46.4177 628.736 46.4737 628.544 46.4737H626.984Z" fill="#1C1C1C"/>
<rect width="677" height="323.705" transform="translate(0 86.1155)" fill="white"/>
<path d="M36.6785 133.833C36.5226 133.833 36.3902 133.787 36.2811 133.693C36.1875 133.584 36.1408 133.452 36.1408 133.296V129.929H28.5662C28.4104 129.929 28.2779 129.882 28.1688 129.789C28.0753 129.68 28.0285 129.547 28.0285 129.392V128.456C28.0285 128.394 28.0441 128.301 28.0753 128.176C28.1221 128.036 28.1922 127.895 28.2857 127.755L35.2992 117.866C35.4862 117.601 35.7745 117.469 36.1642 117.469H37.8474C38.0033 117.469 38.1279 117.523 38.2215 117.632C38.3306 117.726 38.3851 117.85 38.3851 118.006V127.895H40.4891C40.6606 127.895 40.7931 127.95 40.8866 128.059C40.9957 128.152 41.0502 128.277 41.0502 128.433V129.392C41.0502 129.547 40.9957 129.68 40.8866 129.789C40.7931 129.882 40.6684 129.929 40.5125 129.929H38.3851V133.296C38.3851 133.452 38.3306 133.584 38.2215 133.693C38.1279 133.787 38.0033 133.833 37.8474 133.833H36.6785ZM30.53 127.942H36.1642V119.923L30.53 127.942ZM49.2348 134.067C48.1594 134.067 47.2476 133.904 46.4995 133.576C45.767 133.233 45.167 132.766 44.6994 132.174C44.2319 131.581 43.889 130.903 43.6708 130.14C43.4682 129.376 43.3513 128.565 43.3201 127.708C43.3045 127.287 43.2889 126.843 43.2733 126.376C43.2733 125.908 43.2733 125.441 43.2733 124.973C43.2889 124.49 43.3045 124.03 43.3201 123.594C43.3357 122.737 43.4526 121.926 43.6708 121.162C43.9046 120.383 44.2474 119.705 44.6994 119.128C45.167 118.536 45.7748 118.076 46.5229 117.749C47.271 117.406 48.175 117.235 49.2348 117.235C50.3102 117.235 51.2141 117.406 51.9467 117.749C52.6948 118.076 53.3026 118.536 53.7702 119.128C54.2377 119.705 54.5806 120.383 54.7988 121.162C55.0326 121.926 55.1573 122.737 55.1729 123.594C55.1884 124.03 55.1962 124.49 55.1962 124.973C55.2118 125.441 55.2118 125.908 55.1962 126.376C55.1962 126.843 55.1884 127.287 55.1729 127.708C55.1573 128.565 55.0326 129.376 54.7988 130.14C54.5806 130.903 54.2377 131.581 53.7702 132.174C53.3182 132.766 52.7181 133.233 51.97 133.576C51.2375 133.904 50.3258 134.067 49.2348 134.067ZM49.2348 132.08C50.4505 132.08 51.3466 131.683 51.9233 130.888C52.5155 130.077 52.8195 128.978 52.835 127.591C52.8662 127.139 52.8818 126.703 52.8818 126.282C52.8818 125.846 52.8818 125.417 52.8818 124.996C52.8818 124.56 52.8662 124.131 52.835 123.711C52.8195 122.355 52.5155 121.271 51.9233 120.461C51.3466 119.635 50.4505 119.222 49.2348 119.222C48.0347 119.222 47.1385 119.635 46.5463 120.461C45.9696 121.271 45.6657 122.355 45.6345 123.711C45.6345 124.131 45.6268 124.56 45.6112 124.996C45.6112 125.417 45.6112 125.846 45.6112 126.282C45.6268 126.703 45.6345 127.139 45.6345 127.591C45.6657 128.978 45.9774 130.077 46.5697 130.888C47.1619 131.683 48.0503 132.08 49.2348 132.08ZM58.9547 133.833C58.7988 133.833 58.6663 133.787 58.5572 133.693C58.4637 133.584 58.417 133.452 58.417 133.296V117.773C58.417 117.617 58.4637 117.492 58.5572 117.398C58.6663 117.289 58.7988 117.235 58.9547 117.235H60.0534C60.2093 117.235 60.334 117.289 60.4275 117.398C60.5366 117.492 60.5911 117.617 60.5911 117.773V125.908L65.1966 122.074C65.3837 121.918 65.5239 121.817 65.6174 121.77C65.7265 121.708 65.898 121.677 66.1318 121.677H67.3708C67.5111 121.677 67.628 121.723 67.7215 121.817C67.815 121.91 67.8618 122.027 67.8618 122.168C67.8618 122.23 67.8384 122.3 67.7916 122.378C67.7605 122.456 67.6903 122.534 67.5812 122.612L62.1808 127.1L68.1657 132.922C68.3527 133.077 68.4462 133.218 68.4462 133.342C68.4462 133.483 68.3995 133.6 68.3059 133.693C68.2124 133.787 68.0955 133.833 67.9553 133.833H66.7396C66.5058 133.833 66.3344 133.81 66.2253 133.763C66.1162 133.701 65.9759 133.592 65.8045 133.436L60.5911 128.456V133.296C60.5911 133.452 60.5366 133.584 60.4275 133.693C60.334 133.787 60.2093 133.833 60.0534 133.833H58.9547Z" fill="#959596"/>
<path d="M82.077 125.833H643.602" stroke="#E8E8E8" stroke-width="1.66987"/>
<path d="M33.7499 195.135C32.7681 195.135 31.9109 195.018 31.1783 194.784C30.4458 194.534 29.8302 194.207 29.3315 193.802C28.8327 193.397 28.4509 192.953 28.1859 192.469C27.9366 191.986 27.8041 191.488 27.7885 190.973C27.7885 190.833 27.8353 190.724 27.9288 190.646C28.0223 190.568 28.1392 190.529 28.2794 190.529H29.425C29.5652 190.529 29.6899 190.56 29.799 190.623C29.9081 190.685 30.0016 190.817 30.0796 191.02C30.2354 191.581 30.5004 192.017 30.8744 192.329C31.2641 192.641 31.7082 192.859 32.207 192.984C32.7213 193.093 33.2356 193.147 33.7499 193.147C34.8253 193.147 35.6981 192.89 36.3683 192.376C37.0385 191.862 37.3736 191.106 37.3736 190.108C37.3736 189.095 37.0697 188.37 36.4618 187.934C35.854 187.498 35.0124 187.279 33.937 187.279H31.716C31.5602 187.279 31.4277 187.233 31.3186 187.139C31.2251 187.046 31.1783 186.913 31.1783 186.742V186.111C31.1783 185.97 31.2017 185.853 31.2485 185.76C31.3108 185.651 31.3732 185.557 31.4355 185.479L35.9709 180.523H29.0743C28.9184 180.523 28.786 180.476 28.6769 180.383C28.5834 180.289 28.5366 180.157 28.5366 179.985V179.097C28.5366 178.926 28.5834 178.793 28.6769 178.7C28.786 178.591 28.9184 178.536 29.0743 178.536H38.4022C38.5736 178.536 38.7061 178.591 38.7996 178.7C38.9087 178.793 38.9633 178.926 38.9633 179.097V179.939C38.9633 180.048 38.9321 180.149 38.8698 180.243C38.823 180.321 38.7685 180.398 38.7061 180.476L34.1941 185.503L34.5682 185.526C35.5968 185.557 36.493 185.744 37.2567 186.087C38.036 186.43 38.636 186.944 39.0568 187.63C39.4932 188.3 39.7114 189.15 39.7114 190.178C39.7114 191.223 39.4542 192.119 38.9399 192.867C38.4256 193.599 37.7164 194.16 36.8125 194.55C35.9085 194.94 34.8877 195.135 33.7499 195.135ZM48.2348 195.135C47.1594 195.135 46.2476 194.971 45.4995 194.644C44.767 194.301 44.167 193.833 43.6994 193.241C43.2318 192.649 42.8889 191.971 42.6707 191.207C42.4681 190.443 42.3512 189.633 42.3201 188.776C42.3045 188.355 42.2889 187.911 42.2733 187.443C42.2733 186.976 42.2733 186.508 42.2733 186.04C42.2889 185.557 42.3045 185.097 42.3201 184.661C42.3357 183.804 42.4525 182.993 42.6707 182.23C42.9045 181.45 43.2474 180.773 43.6994 180.196C44.167 179.604 44.7748 179.144 45.5229 178.817C46.271 178.474 47.1749 178.302 48.2348 178.302C49.3102 178.302 50.2141 178.474 50.9466 178.817C51.6947 179.144 52.3026 179.604 52.7701 180.196C53.2377 180.773 53.5806 181.45 53.7988 182.23C54.0326 182.993 54.1572 183.804 54.1728 184.661C54.1884 185.097 54.1962 185.557 54.1962 186.04C54.2118 186.508 54.2118 186.976 54.1962 187.443C54.1962 187.911 54.1884 188.355 54.1728 188.776C54.1572 189.633 54.0326 190.443 53.7988 191.207C53.5806 191.971 53.2377 192.649 52.7701 193.241C52.3182 193.833 51.7181 194.301 50.97 194.644C50.2375 194.971 49.3257 195.135 48.2348 195.135ZM48.2348 193.147C49.4504 193.147 50.3466 192.75 50.9233 191.955C51.5155 191.145 51.8194 190.046 51.835 188.659C51.8662 188.207 51.8818 187.77 51.8818 187.35C51.8818 186.913 51.8818 186.485 51.8818 186.064C51.8818 185.627 51.8662 185.199 51.835 184.778C51.8194 183.422 51.5155 182.339 50.9233 181.528C50.3466 180.702 49.4504 180.289 48.2348 180.289C47.0347 180.289 46.1385 180.702 45.5463 181.528C44.9696 182.339 44.6657 183.422 44.6345 184.778C44.6345 185.199 44.6267 185.627 44.6111 186.064C44.6111 186.485 44.6111 186.913 44.6111 187.35C44.6267 187.77 44.6345 188.207 44.6345 188.659C44.6657 190.046 44.9774 191.145 45.5696 191.955C46.1619 192.75 47.0503 193.147 48.2348 193.147ZM57.9546 194.901C57.7988 194.901 57.6663 194.854 57.5572 194.76C57.4637 194.651 57.4169 194.519 57.4169 194.363V178.84C57.4169 178.684 57.4637 178.559 57.5572 178.466C57.6663 178.357 57.7988 178.302 57.9546 178.302H59.0534C59.2093 178.302 59.3339 178.357 59.4275 178.466C59.5366 178.559 59.5911 178.684 59.5911 178.84V186.976L64.1966 183.142C64.3836 182.986 64.5239 182.884 64.6174 182.838C64.7265 182.775 64.898 182.744 65.1317 182.744H66.3708C66.5111 182.744 66.6279 182.791 66.7215 182.884C66.815 182.978 66.8617 183.095 66.8617 183.235C66.8617 183.297 66.8384 183.367 66.7916 183.445C66.7604 183.523 66.6903 183.601 66.5812 183.679L61.1808 188.168L67.1656 193.989C67.3527 194.145 67.4462 194.285 67.4462 194.41C67.4462 194.55 67.3994 194.667 67.3059 194.76C67.2124 194.854 67.0955 194.901 66.9552 194.901H65.7396C65.5058 194.901 65.3344 194.877 65.2253 194.831C65.1162 194.768 64.9759 194.659 64.8044 194.503L59.5911 189.524V194.363C59.5911 194.519 59.5366 194.651 59.4275 194.76C59.3339 194.854 59.2093 194.901 59.0534 194.901H57.9546Z" fill="#959596"/>
<path d="M81.077 186.901H643.602" stroke="#E8E8E8" stroke-width="1.66987"/>
<path d="M28.7861 255.968C28.6302 255.968 28.4978 255.921 28.3887 255.828C28.2951 255.719 28.2484 255.586 28.2484 255.43V254.682C28.2484 254.542 28.2873 254.386 28.3653 254.215C28.4432 254.043 28.5991 253.856 28.8328 253.654L33.789 248.698C34.5839 248.027 35.2073 247.458 35.6593 246.991C36.1268 246.508 36.4541 246.048 36.6412 245.612C36.8438 245.175 36.9451 244.723 36.9451 244.256C36.9451 243.367 36.6957 242.666 36.197 242.152C35.6982 241.622 34.9579 241.357 33.9761 241.357C33.3526 241.357 32.8149 241.489 32.363 241.754C31.911 242.004 31.5525 242.354 31.2876 242.806C31.0382 243.243 30.8745 243.741 30.7966 244.302C30.7654 244.505 30.6797 244.645 30.5395 244.723C30.4148 244.801 30.2979 244.84 30.1888 244.84H28.9731C28.8328 244.84 28.7159 244.801 28.6224 244.723C28.5289 244.63 28.4822 244.521 28.4822 244.396C28.4978 243.804 28.6224 243.211 28.8562 242.619C29.09 242.011 29.4329 241.466 29.8849 240.983C30.3524 240.5 30.9213 240.11 31.5915 239.814C32.2772 239.502 33.0721 239.346 33.9761 239.346C35.2073 239.346 36.2126 239.572 36.9918 240.024C37.7867 240.461 38.3712 241.045 38.7452 241.778C39.1193 242.51 39.3063 243.313 39.3063 244.186C39.3063 244.871 39.1894 245.502 38.9556 246.079C38.7218 246.64 38.379 247.194 37.927 247.739C37.4906 248.269 36.9451 248.814 36.2905 249.375L31.8019 253.934H39.0959C39.2673 253.934 39.3998 253.981 39.4933 254.075C39.6024 254.168 39.657 254.3 39.657 254.472V255.43C39.657 255.586 39.6024 255.719 39.4933 255.828C39.3998 255.921 39.2673 255.968 39.0959 255.968H28.7861ZM48.2348 256.202C47.1594 256.202 46.2476 256.038 45.4995 255.711C44.767 255.368 44.1669 254.901 43.6994 254.308C43.2318 253.716 42.8889 253.038 42.6707 252.274C42.4681 251.511 42.3512 250.7 42.3201 249.843C42.3045 249.422 42.2889 248.978 42.2733 248.51C42.2733 248.043 42.2733 247.575 42.2733 247.108C42.2889 246.625 42.3045 246.165 42.3201 245.728C42.3357 244.871 42.4525 244.061 42.6707 243.297C42.9045 242.518 43.2474 241.84 43.6994 241.263C44.1669 240.671 44.7748 240.211 45.5229 239.884C46.271 239.541 47.1749 239.37 48.2348 239.37C49.3102 239.37 50.2141 239.541 50.9466 239.884C51.6947 240.211 52.3026 240.671 52.7701 241.263C53.2377 241.84 53.5806 242.518 53.7988 243.297C54.0326 244.061 54.1572 244.871 54.1728 245.728C54.1884 246.165 54.1962 246.625 54.1962 247.108C54.2118 247.575 54.2118 248.043 54.1962 248.51C54.1962 248.978 54.1884 249.422 54.1728 249.843C54.1572 250.7 54.0326 251.511 53.7988 252.274C53.5806 253.038 53.2377 253.716 52.7701 254.308C52.3182 254.901 51.7181 255.368 50.97 255.711C50.2375 256.038 49.3257 256.202 48.2348 256.202ZM48.2348 254.215C49.4504 254.215 50.3466 253.817 50.9233 253.022C51.5155 252.212 51.8194 251.113 51.835 249.726C51.8662 249.274 51.8818 248.838 51.8818 248.417C51.8818 247.981 51.8818 247.552 51.8818 247.131C51.8818 246.695 51.8662 246.266 51.835 245.845C51.8194 244.489 51.5155 243.406 50.9233 242.596C50.3466 241.77 49.4504 241.357 48.2348 241.357C47.0347 241.357 46.1385 241.77 45.5463 242.596C44.9696 243.406 44.6657 244.489 44.6345 245.845C44.6345 246.266 44.6267 246.695 44.6111 247.131C44.6111 247.552 44.6111 247.981 44.6111 248.417C44.6267 248.838 44.6345 249.274 44.6345 249.726C44.6657 251.113 44.9774 252.212 45.5696 253.022C46.1619 253.817 47.0503 254.215 48.2348 254.215ZM57.9546 255.968C57.7988 255.968 57.6663 255.921 57.5572 255.828C57.4637 255.719 57.4169 255.586 57.4169 255.43V239.907C57.4169 239.751 57.4637 239.627 57.5572 239.533C57.6663 239.424 57.7988 239.37 57.9546 239.37H59.0534C59.2093 239.37 59.3339 239.424 59.4275 239.533C59.5366 239.627 59.5911 239.751 59.5911 239.907V248.043L64.1966 244.209C64.3836 244.053 64.5239 243.952 64.6174 243.905C64.7265 243.843 64.898 243.811 65.1317 243.811H66.3708C66.5111 243.811 66.6279 243.858 66.7215 243.952C66.815 244.045 66.8617 244.162 66.8617 244.302C66.8617 244.365 66.8384 244.435 66.7916 244.513C66.7604 244.591 66.6903 244.669 66.5812 244.747L61.1808 249.235L67.1656 255.056C67.3527 255.212 67.4462 255.353 67.4462 255.477C67.4462 255.617 67.3994 255.734 67.3059 255.828C67.2124 255.921 67.0955 255.968 66.9552 255.968H65.7396C65.5058 255.968 65.3344 255.945 65.2253 255.898C65.1162 255.836 64.9759 255.727 64.8044 255.571L59.5911 250.591V255.43C59.5911 255.586 59.5366 255.719 59.4275 255.828C59.3339 255.921 59.2093 255.968 59.0534 255.968H57.9546Z" fill="#959596"/>
<path d="M81.077 247.968H643.602" stroke="#E8E8E8" stroke-width="1.66987"/>
<path d="M39.9561 317.036C39.8002 317.036 39.6678 316.989 39.5587 316.895C39.4651 316.786 39.4184 316.654 39.4184 316.498V303.406L35.5376 306.398C35.4129 306.492 35.2804 306.531 35.1402 306.515C34.9999 306.5 34.883 306.43 34.7895 306.305L34.1817 305.533C34.0882 305.393 34.0492 305.253 34.0648 305.113C34.0959 304.972 34.1739 304.855 34.2986 304.762L39.395 300.834C39.5041 300.756 39.6054 300.71 39.6989 300.694C39.7924 300.679 39.8937 300.671 40.0028 300.671H41.1951C41.351 300.671 41.4757 300.725 41.5692 300.834C41.6627 300.928 41.7095 301.053 41.7095 301.208V316.498C41.7095 316.654 41.6627 316.786 41.5692 316.895C41.4757 316.989 41.351 317.036 41.1951 317.036H39.9561ZM50.9143 317.269C49.8389 317.269 48.9271 317.106 48.179 316.778C47.4465 316.435 46.8465 315.968 46.3789 315.376C45.9113 314.783 45.5684 314.105 45.3502 313.342C45.1476 312.578 45.0307 311.768 44.9996 310.91C44.984 310.49 44.9684 310.045 44.9528 309.578C44.9528 309.11 44.9528 308.643 44.9528 308.175C44.9684 307.692 44.984 307.232 44.9996 306.796C45.0152 305.939 45.1321 305.128 45.3502 304.365C45.584 303.585 45.9269 302.907 46.3789 302.331C46.8465 301.738 47.4543 301.279 48.2024 300.951C48.9505 300.608 49.8545 300.437 50.9143 300.437C51.9897 300.437 52.8936 300.608 53.6261 300.951C54.3742 301.279 54.9821 301.738 55.4496 302.331C55.9172 302.907 56.2601 303.585 56.4783 304.365C56.7121 305.128 56.8368 305.939 56.8523 306.796C56.8679 307.232 56.8757 307.692 56.8757 308.175C56.8913 308.643 56.8913 309.11 56.8757 309.578C56.8757 310.045 56.8679 310.49 56.8523 310.91C56.8368 311.768 56.7121 312.578 56.4783 313.342C56.2601 314.105 55.9172 314.783 55.4496 315.376C54.9977 315.968 54.3976 316.435 53.6495 316.778C52.917 317.106 52.0052 317.269 50.9143 317.269ZM50.9143 315.282C52.1299 315.282 53.0261 314.885 53.6028 314.09C54.195 313.279 54.4989 312.181 54.5145 310.794C54.5457 310.342 54.5613 309.905 54.5613 309.484C54.5613 309.048 54.5613 308.619 54.5613 308.199C54.5613 307.762 54.5457 307.334 54.5145 306.913C54.4989 305.557 54.195 304.474 53.6028 303.663C53.0261 302.837 52.1299 302.424 50.9143 302.424C49.7142 302.424 48.818 302.837 48.2258 303.663C47.6491 304.474 47.3452 305.557 47.314 306.913C47.314 307.334 47.3062 307.762 47.2906 308.199C47.2906 308.619 47.2906 309.048 47.2906 309.484C47.3062 309.905 47.314 310.342 47.314 310.794C47.3452 312.181 47.6569 313.279 48.2491 314.09C48.8414 314.885 49.7298 315.282 50.9143 315.282ZM60.6341 317.036C60.4783 317.036 60.3458 316.989 60.2367 316.895C60.1432 316.786 60.0964 316.654 60.0964 316.498V300.975C60.0964 300.819 60.1432 300.694 60.2367 300.601C60.3458 300.492 60.4783 300.437 60.6341 300.437H61.7329C61.8888 300.437 62.0134 300.492 62.107 300.601C62.2161 300.694 62.2706 300.819 62.2706 300.975V309.11L66.8761 305.276C67.0631 305.12 67.2034 305.019 67.2969 304.972C67.406 304.91 67.5775 304.879 67.8112 304.879H69.0503C69.1906 304.879 69.3075 304.926 69.401 305.019C69.4945 305.113 69.5412 305.23 69.5412 305.37C69.5412 305.432 69.5179 305.502 69.4711 305.58C69.4399 305.658 69.3698 305.736 69.2607 305.814L63.8603 310.303L69.8452 316.124C70.0322 316.28 70.1257 316.42 70.1257 316.545C70.1257 316.685 70.0789 316.802 69.9854 316.895C69.8919 316.989 69.775 317.036 69.6347 317.036H68.4191C68.1853 317.036 68.0139 317.012 67.9048 316.965C67.7957 316.903 67.6554 316.794 67.484 316.638L62.2706 311.659V316.498C62.2706 316.654 62.2161 316.786 62.107 316.895C62.0134 316.989 61.8888 317.036 61.7329 317.036H60.6341Z" fill="#959596"/>
<path d="M83.7564 309.036H643.602" stroke="#E8E8E8" stroke-width="1.66987"/>
<path d="M49.2107 378.337C48.1353 378.337 47.2235 378.173 46.4754 377.846C45.7429 377.503 45.1429 377.035 44.6753 376.443C44.2077 375.851 43.8649 375.173 43.6467 374.409C43.444 373.645 43.3272 372.835 43.296 371.978C43.2804 371.557 43.2648 371.113 43.2492 370.645C43.2492 370.178 43.2492 369.71 43.2492 369.242C43.2648 368.759 43.2804 368.3 43.296 367.863C43.3116 367.006 43.4285 366.195 43.6467 365.432C43.8804 364.653 44.2233 363.975 44.6753 363.398C45.1429 362.806 45.7507 362.346 46.4988 362.019C47.2469 361.676 48.1509 361.504 49.2107 361.504C50.2861 361.504 51.19 361.676 51.9226 362.019C52.6707 362.346 53.2785 362.806 53.7461 363.398C54.2136 363.975 54.5565 364.653 54.7747 365.432C55.0085 366.195 55.1332 367.006 55.1487 367.863C55.1643 368.3 55.1721 368.759 55.1721 369.242C55.1877 369.71 55.1877 370.178 55.1721 370.645C55.1721 371.113 55.1643 371.557 55.1487 371.978C55.1332 372.835 55.0085 373.645 54.7747 374.409C54.5565 375.173 54.2136 375.851 53.7461 376.443C53.2941 377.035 52.694 377.503 51.9459 377.846C51.2134 378.173 50.3017 378.337 49.2107 378.337ZM49.2107 376.349C50.4263 376.349 51.3225 375.952 51.8992 375.157C52.4914 374.347 52.7953 373.248 52.8109 371.861C52.8421 371.409 52.8577 370.972 52.8577 370.552C52.8577 370.115 52.8577 369.687 52.8577 369.266C52.8577 368.829 52.8421 368.401 52.8109 367.98C52.7953 366.624 52.4914 365.541 51.8992 364.73C51.3225 363.904 50.4263 363.491 49.2107 363.491C48.0106 363.491 47.1144 363.904 46.5222 364.73C45.9455 365.541 45.6416 366.624 45.6104 367.98C45.6104 368.401 45.6026 368.829 45.5871 369.266C45.5871 369.687 45.5871 370.115 45.5871 370.552C45.6026 370.972 45.6104 371.409 45.6104 371.861C45.6416 373.248 45.9533 374.347 46.5456 375.157C47.1378 375.952 48.0262 376.349 49.2107 376.349ZM58.9305 378.103C58.7747 378.103 58.6422 378.056 58.5331 377.963C58.4396 377.853 58.3928 377.721 58.3928 377.565V362.042C58.3928 361.886 58.4396 361.761 58.5331 361.668C58.6422 361.559 58.7747 361.504 58.9305 361.504H60.0293C60.1852 361.504 60.3099 361.559 60.4034 361.668C60.5125 361.761 60.567 361.886 60.567 362.042V370.178L65.1725 366.344C65.3596 366.188 65.4998 366.086 65.5933 366.04C65.7024 365.977 65.8739 365.946 66.1077 365.946H67.3467C67.487 365.946 67.6039 365.993 67.6974 366.086C67.7909 366.18 67.8376 366.297 67.8376 366.437C67.8376 366.499 67.8143 366.57 67.7675 366.647C67.7363 366.725 67.6662 366.803 67.5571 366.881L62.1567 371.37L68.1416 377.191C68.3286 377.347 68.4221 377.487 68.4221 377.612C68.4221 377.752 68.3753 377.869 68.2818 377.963C68.1883 378.056 68.0714 378.103 67.9312 378.103H66.7155C66.4817 378.103 66.3103 378.079 66.2012 378.033C66.0921 377.97 65.9518 377.861 65.7804 377.705L60.567 372.726V377.565C60.567 377.721 60.5125 377.853 60.4034 377.963C60.3099 378.056 60.1852 378.103 60.0293 378.103H58.9305Z" fill="#959596"/>
<path d="M82.1058 370.103H643.602" stroke="#E8E8E8" stroke-width="1.66987"/>
<rect width="677" height="50.0962" transform="translate(0 409.821)" fill="white"/>
<path d="M81.5017 406.023C80.7068 406.023 79.9509 405.929 79.234 405.742C78.5326 405.539 77.9014 405.236 77.3404 404.83C76.7949 404.41 76.3585 403.887 76.0312 403.264C75.7039 402.641 75.5246 401.908 75.4935 401.066C75.4935 400.926 75.5402 400.809 75.6337 400.716C75.7273 400.607 75.8519 400.552 76.0078 400.552H77.2702C77.4417 400.552 77.5741 400.607 77.6677 400.716C77.7767 400.809 77.8469 400.934 77.8781 401.09C77.9404 401.791 78.143 402.36 78.4859 402.796C78.8288 403.217 79.2652 403.529 79.7951 403.732C80.325 403.934 80.9094 404.035 81.5484 404.035C82.7329 404.035 83.6369 403.646 84.2603 402.867C84.8837 402.087 85.1954 401.051 85.1954 399.757V391.458H76.8962C76.7403 391.458 76.6078 391.411 76.4987 391.318C76.4052 391.209 76.3585 391.076 76.3585 390.92V389.962C76.3585 389.806 76.4052 389.681 76.4987 389.588C76.6078 389.479 76.7403 389.424 76.8962 389.424H86.9722C87.1436 389.424 87.2761 389.479 87.3696 389.588C87.4787 389.681 87.5333 389.814 87.5333 389.985V399.804C87.5333 401.066 87.2917 402.165 86.8085 403.1C86.3254 404.035 85.6396 404.76 84.7513 405.274C83.8629 405.773 82.7797 406.023 81.5017 406.023ZM90.0603 405.789C89.9356 405.789 89.8265 405.742 89.733 405.649C89.6395 405.555 89.5927 405.446 89.5927 405.321C89.5927 405.243 89.6005 405.158 89.6161 405.064L95.4139 389.938C95.4763 389.783 95.562 389.658 95.6711 389.564C95.7802 389.471 95.9438 389.424 96.162 389.424H97.7517C97.9544 389.424 98.1102 389.471 98.2193 389.564C98.344 389.658 98.4375 389.783 98.4998 389.938L104.274 405.064C104.305 405.158 104.321 405.243 104.321 405.321C104.321 405.446 104.274 405.555 104.181 405.649C104.087 405.742 103.978 405.789 103.853 405.789H102.661C102.474 405.789 102.334 405.742 102.24 405.649C102.162 405.555 102.108 405.469 102.077 405.391L100.791 402.072H93.1229L91.837 405.391C91.8215 405.469 91.7669 405.555 91.6734 405.649C91.5799 405.742 91.4396 405.789 91.2526 405.789H90.0603ZM93.8008 400.061H100.113L96.9569 391.762L93.8008 400.061ZM107.358 405.789C107.187 405.789 107.054 405.742 106.961 405.649C106.867 405.539 106.821 405.407 106.821 405.251V389.985C106.821 389.814 106.867 389.681 106.961 389.588C107.054 389.479 107.187 389.424 107.358 389.424H108.434C108.621 389.424 108.761 389.471 108.855 389.564C108.948 389.642 109.003 389.705 109.018 389.751L116.78 401.674V389.985C116.78 389.814 116.827 389.681 116.92 389.588C117.014 389.479 117.146 389.424 117.317 389.424H118.44C118.611 389.424 118.744 389.479 118.837 389.588C118.946 389.681 119.001 389.814 119.001 389.985V405.228C119.001 405.384 118.946 405.516 118.837 405.625C118.744 405.734 118.619 405.789 118.463 405.789H117.341C117.169 405.789 117.037 405.742 116.943 405.649C116.866 405.555 116.811 405.493 116.78 405.462L109.042 393.656V405.251C109.042 405.407 108.987 405.539 108.878 405.649C108.784 405.742 108.652 405.789 108.481 405.789H107.358Z" fill="#959596"/>
<path d="M164.675 405.789C164.504 405.789 164.371 405.742 164.278 405.649C164.184 405.539 164.137 405.407 164.137 405.251V389.985C164.137 389.814 164.184 389.681 164.278 389.588C164.371 389.479 164.504 389.424 164.675 389.424H174.213C174.385 389.424 174.517 389.479 174.611 389.588C174.704 389.681 174.751 389.814 174.751 389.985V390.92C174.751 391.092 174.704 391.224 174.611 391.318C174.517 391.411 174.385 391.458 174.213 391.458H166.405V396.905H173.746C173.917 396.905 174.05 396.96 174.143 397.069C174.237 397.162 174.284 397.295 174.284 397.466V398.401C174.284 398.557 174.237 398.69 174.143 398.799C174.05 398.892 173.917 398.939 173.746 398.939H166.405V405.251C166.405 405.407 166.351 405.539 166.241 405.649C166.148 405.742 166.015 405.789 165.844 405.789H164.675ZM178.328 405.789C178.156 405.789 178.024 405.742 177.93 405.649C177.837 405.539 177.79 405.407 177.79 405.251V389.985C177.79 389.814 177.837 389.681 177.93 389.588C178.024 389.479 178.156 389.424 178.328 389.424H187.983C188.154 389.424 188.287 389.479 188.38 389.588C188.474 389.681 188.521 389.814 188.521 389.985V390.874C188.521 391.045 188.474 391.177 188.38 391.271C188.287 391.364 188.154 391.411 187.983 391.411H180.034V396.531H187.469C187.64 396.531 187.772 396.586 187.866 396.695C187.959 396.788 188.006 396.921 188.006 397.092V397.957C188.006 398.113 187.959 398.245 187.866 398.355C187.772 398.448 187.64 398.495 187.469 398.495H180.034V403.802H188.17C188.341 403.802 188.474 403.848 188.567 403.942C188.661 404.035 188.708 404.168 188.708 404.339V405.251C188.708 405.407 188.661 405.539 188.567 405.649C188.474 405.742 188.341 405.789 188.17 405.789H178.328ZM192.505 405.789C192.334 405.789 192.201 405.742 192.108 405.649C192.014 405.539 191.968 405.407 191.968 405.251V389.985C191.968 389.814 192.014 389.681 192.108 389.588C192.201 389.479 192.334 389.424 192.505 389.424H198.911C200.08 389.424 201.031 389.619 201.763 390.009C202.511 390.383 203.057 390.897 203.4 391.551C203.758 392.206 203.937 392.939 203.937 393.749C203.937 394.388 203.828 394.941 203.61 395.409C203.407 395.861 203.15 396.235 202.838 396.531C202.527 396.812 202.223 397.03 201.927 397.186C202.535 397.482 203.072 397.965 203.54 398.635C204.023 399.305 204.265 400.116 204.265 401.066C204.265 401.924 204.07 402.711 203.68 403.428C203.29 404.145 202.706 404.721 201.927 405.158C201.163 405.578 200.212 405.789 199.075 405.789H192.505ZM194.259 403.895H198.771C199.784 403.895 200.563 403.622 201.108 403.077C201.654 402.531 201.927 401.861 201.927 401.066C201.927 400.24 201.654 399.562 201.108 399.033C200.563 398.487 199.784 398.214 198.771 398.214H194.259V403.895ZM194.259 396.344H198.56C199.558 396.344 200.314 396.118 200.828 395.666C201.342 395.198 201.599 394.567 201.599 393.772C201.599 392.978 201.342 392.37 200.828 391.949C200.314 391.528 199.558 391.318 198.56 391.318H194.259V396.344Z" fill="#959596"/>
<path d="M247.674 405.789C247.518 405.789 247.385 405.742 247.276 405.649C247.183 405.539 247.136 405.407 247.136 405.251V389.985C247.136 389.814 247.183 389.681 247.276 389.588C247.385 389.479 247.518 389.424 247.674 389.424H248.843C249.03 389.424 249.17 389.471 249.263 389.564C249.357 389.658 249.411 389.736 249.427 389.798L254.383 399.243L259.363 389.798C259.394 389.736 259.448 389.658 259.526 389.564C259.62 389.471 259.76 389.424 259.947 389.424H261.093C261.264 389.424 261.397 389.479 261.49 389.588C261.599 389.681 261.654 389.814 261.654 389.985V405.251C261.654 405.407 261.599 405.539 261.49 405.649C261.397 405.742 261.264 405.789 261.093 405.789H259.947C259.791 405.789 259.659 405.742 259.55 405.649C259.456 405.539 259.41 405.407 259.41 405.251V393.749L255.505 401.37C255.443 401.526 255.35 401.651 255.225 401.744C255.1 401.822 254.944 401.861 254.757 401.861H254.033C253.83 401.861 253.666 401.822 253.542 401.744C253.432 401.651 253.339 401.526 253.261 401.37L249.357 393.749V405.251C249.357 405.407 249.302 405.539 249.193 405.649C249.1 405.742 248.975 405.789 248.819 405.789H247.674ZM264.598 405.789C264.474 405.789 264.364 405.742 264.271 405.649C264.177 405.555 264.131 405.446 264.131 405.321C264.131 405.243 264.138 405.158 264.154 405.064L269.952 389.938C270.014 389.783 270.1 389.658 270.209 389.564C270.318 389.471 270.482 389.424 270.7 389.424H272.29C272.492 389.424 272.648 389.471 272.757 389.564C272.882 389.658 272.975 389.783 273.038 389.938L278.812 405.064C278.843 405.158 278.859 405.243 278.859 405.321C278.859 405.446 278.812 405.555 278.719 405.649C278.625 405.742 278.516 405.789 278.391 405.789H277.199C277.012 405.789 276.872 405.742 276.778 405.649C276.7 405.555 276.646 405.469 276.615 405.391L275.329 402.072H267.661L266.375 405.391C266.359 405.469 266.305 405.555 266.211 405.649C266.118 405.742 265.978 405.789 265.791 405.789H264.598ZM268.339 400.061H274.651L271.495 391.762L268.339 400.061ZM281.896 405.789C281.725 405.789 281.592 405.742 281.499 405.649C281.405 405.539 281.359 405.407 281.359 405.251V389.985C281.359 389.814 281.405 389.681 281.499 389.588C281.592 389.479 281.725 389.424 281.896 389.424H287.601C289.362 389.424 290.757 389.837 291.785 390.663C292.814 391.489 293.328 392.713 293.328 394.333C293.328 395.534 293.024 396.515 292.416 397.279C291.824 398.027 291.014 398.549 289.985 398.845L293.585 405.064C293.632 405.158 293.656 405.243 293.656 405.321C293.656 405.446 293.601 405.555 293.492 405.649C293.398 405.742 293.289 405.789 293.165 405.789H292.042C291.777 405.789 291.583 405.719 291.458 405.578C291.333 405.438 291.224 405.298 291.131 405.158L287.741 399.22H283.65V405.251C283.65 405.407 283.595 405.539 283.486 405.649C283.392 405.742 283.26 405.789 283.089 405.789H281.896ZM283.65 397.232H287.507C288.676 397.232 289.549 396.991 290.125 396.508C290.702 396.009 290.99 395.276 290.99 394.31C290.99 393.359 290.702 392.635 290.125 392.136C289.564 391.637 288.692 391.388 287.507 391.388H283.65V397.232Z" fill="#959596"/>
<path d="M334.036 405.789C333.911 405.789 333.802 405.742 333.708 405.649C333.615 405.555 333.568 405.446 333.568 405.321C333.568 405.243 333.576 405.158 333.591 405.064L339.389 389.938C339.452 389.783 339.537 389.658 339.646 389.564C339.755 389.471 339.919 389.424 340.137 389.424H341.727C341.93 389.424 342.085 389.471 342.195 389.564C342.319 389.658 342.413 389.783 342.475 389.938L348.25 405.064C348.281 405.158 348.296 405.243 348.296 405.321C348.296 405.446 348.25 405.555 348.156 405.649C348.063 405.742 347.953 405.789 347.829 405.789H346.636C346.449 405.789 346.309 405.742 346.216 405.649C346.138 405.555 346.083 405.469 346.052 405.391L344.766 402.072H337.098L335.812 405.391C335.797 405.469 335.742 405.555 335.649 405.649C335.555 405.742 335.415 405.789 335.228 405.789H334.036ZM337.776 400.061H344.088L340.932 391.762L337.776 400.061ZM351.334 405.789C351.162 405.789 351.03 405.742 350.936 405.649C350.843 405.539 350.796 405.407 350.796 405.251V389.985C350.796 389.814 350.843 389.681 350.936 389.588C351.03 389.479 351.162 389.424 351.334 389.424H357.272C358.425 389.424 359.423 389.611 360.264 389.985C361.121 390.359 361.784 390.92 362.251 391.668C362.719 392.401 362.953 393.32 362.953 394.427C362.953 395.534 362.719 396.453 362.251 397.186C361.784 397.918 361.121 398.471 360.264 398.845C359.423 399.22 358.425 399.407 357.272 399.407H353.134V405.251C353.134 405.407 353.079 405.539 352.97 405.649C352.877 405.742 352.744 405.789 352.573 405.789H351.334ZM353.11 397.443H357.155C358.308 397.443 359.173 397.186 359.75 396.671C360.326 396.157 360.615 395.409 360.615 394.427C360.615 393.461 360.334 392.713 359.773 392.183C359.212 391.653 358.339 391.388 357.155 391.388H353.11V397.443ZM366.333 405.789C366.162 405.789 366.029 405.742 365.936 405.649C365.842 405.539 365.795 405.407 365.795 405.251V389.985C365.795 389.814 365.842 389.681 365.936 389.588C366.029 389.479 366.162 389.424 366.333 389.424H372.037C373.799 389.424 375.194 389.837 376.222 390.663C377.251 391.489 377.765 392.713 377.765 394.333C377.765 395.534 377.461 396.515 376.853 397.279C376.261 398.027 375.451 398.549 374.422 398.845L378.022 405.064C378.069 405.158 378.092 405.243 378.092 405.321C378.092 405.446 378.038 405.555 377.929 405.649C377.835 405.742 377.726 405.789 377.601 405.789H376.479C376.214 405.789 376.02 405.719 375.895 405.578C375.77 405.438 375.661 405.298 375.568 405.158L372.178 399.22H368.087V405.251C368.087 405.407 368.032 405.539 367.923 405.649C367.829 405.742 367.697 405.789 367.525 405.789H366.333ZM368.087 397.232H371.944C373.113 397.232 373.986 396.991 374.562 396.508C375.139 396.009 375.427 395.276 375.427 394.31C375.427 393.359 375.139 392.635 374.562 392.136C374.001 391.637 373.128 391.388 371.944 391.388H368.087V397.232Z" fill="#959596"/>
<path d="M420.671 405.789C420.515 405.789 420.382 405.742 420.273 405.649C420.18 405.539 420.133 405.407 420.133 405.251V389.985C420.133 389.814 420.18 389.681 420.273 389.588C420.382 389.479 420.515 389.424 420.671 389.424H421.84C422.027 389.424 422.167 389.471 422.26 389.564C422.354 389.658 422.408 389.736 422.424 389.798L427.38 399.243L432.36 389.798C432.391 389.736 432.445 389.658 432.523 389.564C432.617 389.471 432.757 389.424 432.944 389.424H434.09C434.261 389.424 434.394 389.479 434.487 389.588C434.596 389.681 434.651 389.814 434.651 389.985V405.251C434.651 405.407 434.596 405.539 434.487 405.649C434.394 405.742 434.261 405.789 434.09 405.789H432.944C432.788 405.789 432.656 405.742 432.547 405.649C432.453 405.539 432.406 405.407 432.406 405.251V393.749L428.502 401.37C428.44 401.526 428.346 401.651 428.222 401.744C428.097 401.822 427.941 401.861 427.754 401.861H427.029C426.827 401.861 426.663 401.822 426.539 401.744C426.429 401.651 426.336 401.526 426.258 401.37L422.354 393.749V405.251C422.354 405.407 422.299 405.539 422.19 405.649C422.097 405.742 421.972 405.789 421.816 405.789H420.671ZM437.595 405.789C437.47 405.789 437.361 405.742 437.268 405.649C437.174 405.555 437.128 405.446 437.128 405.321C437.128 405.243 437.135 405.158 437.151 405.064L442.949 389.938C443.011 389.783 443.097 389.658 443.206 389.564C443.315 389.471 443.479 389.424 443.697 389.424H445.287C445.489 389.424 445.645 389.471 445.754 389.564C445.879 389.658 445.972 389.783 446.035 389.938L451.809 405.064C451.84 405.158 451.856 405.243 451.856 405.321C451.856 405.446 451.809 405.555 451.716 405.649C451.622 405.742 451.513 405.789 451.388 405.789H450.196C450.009 405.789 449.869 405.742 449.775 405.649C449.697 405.555 449.643 405.469 449.612 405.391L448.326 402.072H440.658L439.372 405.391C439.356 405.469 439.302 405.555 439.208 405.649C439.115 405.742 438.974 405.789 438.787 405.789H437.595ZM441.336 400.061H447.648L444.492 391.762L441.336 400.061ZM457.576 405.789C457.42 405.789 457.287 405.742 457.178 405.649C457.085 405.539 457.038 405.407 457.038 405.251V399.734L451.404 390.196C451.388 390.149 451.372 390.102 451.357 390.055C451.341 390.009 451.334 389.954 451.334 389.892C451.334 389.767 451.38 389.658 451.474 389.564C451.567 389.471 451.676 389.424 451.801 389.424H453.017C453.157 389.424 453.282 389.463 453.391 389.541C453.5 389.603 453.578 389.697 453.625 389.821L458.183 397.396L462.742 389.821C462.82 389.697 462.906 389.603 462.999 389.541C463.108 389.463 463.233 389.424 463.373 389.424H464.566C464.706 389.424 464.823 389.471 464.916 389.564C465.01 389.658 465.057 389.767 465.057 389.892C465.057 389.954 465.049 390.009 465.033 390.055C465.018 390.102 464.994 390.149 464.963 390.196L459.352 399.734V405.251C459.352 405.407 459.298 405.539 459.189 405.649C459.095 405.742 458.963 405.789 458.791 405.789H457.576Z" fill="#959596"/>
<path d="M510.994 406.023C510.199 406.023 509.443 405.929 508.726 405.742C508.025 405.539 507.394 405.236 506.833 404.83C506.287 404.41 505.851 403.887 505.523 403.264C505.196 402.641 505.017 401.908 504.986 401.066C504.986 400.926 505.033 400.809 505.126 400.716C505.22 400.607 505.344 400.552 505.5 400.552H506.763C506.934 400.552 507.066 400.607 507.16 400.716C507.269 400.809 507.339 400.934 507.37 401.09C507.433 401.791 507.635 402.36 507.978 402.796C508.321 403.217 508.757 403.529 509.287 403.732C509.817 403.934 510.402 404.035 511.041 404.035C512.225 404.035 513.129 403.646 513.753 402.867C514.376 402.087 514.688 401.051 514.688 399.757V391.458H506.388C506.233 391.458 506.1 391.411 505.991 391.318C505.898 391.209 505.851 391.076 505.851 390.92V389.962C505.851 389.806 505.898 389.681 505.991 389.588C506.1 389.479 506.233 389.424 506.388 389.424H516.464C516.636 389.424 516.768 389.479 516.862 389.588C516.971 389.681 517.026 389.814 517.026 389.985V399.804C517.026 401.066 516.784 402.165 516.301 403.1C515.818 404.035 515.132 404.76 514.244 405.274C513.355 405.773 512.272 406.023 510.994 406.023ZM527.12 406.023C525.811 406.023 524.681 405.789 523.73 405.321C522.795 404.854 522.07 404.145 521.556 403.194C521.057 402.228 520.808 400.988 520.808 399.477V389.985C520.808 389.814 520.855 389.681 520.948 389.588C521.042 389.479 521.174 389.424 521.346 389.424H522.538C522.709 389.424 522.842 389.479 522.935 389.588C523.044 389.681 523.099 389.814 523.099 389.985V399.523C523.099 401.051 523.457 402.181 524.174 402.913C524.891 403.646 525.873 404.012 527.12 404.012C528.351 404.012 529.325 403.646 530.042 402.913C530.775 402.181 531.141 401.051 531.141 399.523V389.985C531.141 389.814 531.188 389.681 531.281 389.588C531.39 389.479 531.523 389.424 531.679 389.424H532.894C533.05 389.424 533.175 389.479 533.269 389.588C533.378 389.681 533.432 389.814 533.432 389.985V399.477C533.432 400.988 533.175 402.228 532.661 403.194C532.162 404.145 531.445 404.854 530.51 405.321C529.575 405.789 528.445 406.023 527.12 406.023ZM537.878 405.789C537.707 405.789 537.574 405.742 537.481 405.649C537.387 405.539 537.34 405.407 537.34 405.251V389.985C537.34 389.814 537.387 389.681 537.481 389.588C537.574 389.479 537.707 389.424 537.878 389.424H538.953C539.14 389.424 539.281 389.471 539.374 389.564C539.468 389.642 539.522 389.705 539.538 389.751L547.299 401.674V389.985C547.299 389.814 547.346 389.681 547.44 389.588C547.533 389.479 547.666 389.424 547.837 389.424H548.959C549.131 389.424 549.263 389.479 549.357 389.588C549.466 389.681 549.52 389.814 549.52 389.985V405.228C549.52 405.384 549.466 405.516 549.357 405.625C549.263 405.734 549.139 405.789 548.983 405.789H547.861C547.689 405.789 547.557 405.742 547.463 405.649C547.385 405.555 547.331 405.493 547.299 405.462L539.561 393.656V405.251C539.561 405.407 539.507 405.539 539.398 405.649C539.304 405.742 539.172 405.789 539 405.789H537.878Z" fill="#959596"/>
<path d="M83.4937 374.662L112.838 327.181C113.283 326.461 113.984 325.938 114.8 325.715L143.281 317.937C144.103 317.712 144.807 317.183 145.251 316.457L173.557 270.161C174.535 268.56 176.64 268.079 178.216 269.096L203.051 285.111C204.607 286.115 206.684 285.66 207.678 284.098L240.363 232.753C241.431 231.074 243.721 230.696 245.272 231.942L270.63 252.311C271.571 253.066 272.846 253.256 273.966 252.806L298.485 242.959C300.33 242.218 302.41 243.243 302.946 245.158L331.454 347.031C332.232 349.811 335.933 350.361 337.486 347.927L363.245 307.557C363.728 306.799 364.497 306.268 365.376 306.084L398.1 299.239C399.136 299.023 400.213 299.31 401.004 300.013L427.454 323.548C428.955 324.883 431.286 324.601 432.425 322.947L458.499 285.087C460.107 282.754 463.707 283.356 464.467 286.085L489.208 374.895C489.86 377.236 492.715 378.119 494.575 376.555L521.134 354.225L554.398 333.04" stroke="#674FCD" stroke-width="4.17468"/>
<path d="M295.985 146.949L295.985 374.052" stroke="#E8E8E8" stroke-width="1.66987"/>
<path d="M295.985 212.909C295.985 205.531 301.966 199.55 309.344 199.55H366.325C373.703 199.55 379.684 205.531 379.684 212.909V226.89C379.684 234.268 373.703 240.249 366.325 240.249H295.985V212.909Z" fill="#1A1A1A"/>
<path d="M305.897 226.899C305.753 226.899 305.63 226.856 305.528 226.769C305.442 226.668 305.398 226.545 305.398 226.4V225.705C305.398 225.575 305.434 225.43 305.507 225.271C305.579 225.112 305.724 224.938 305.941 224.75L310.543 220.148C311.281 219.526 311.86 218.997 312.28 218.563C312.714 218.115 313.018 217.688 313.191 217.282C313.38 216.877 313.474 216.458 313.474 216.023C313.474 215.198 313.242 214.547 312.779 214.07C312.316 213.578 311.628 213.332 310.717 213.332C310.138 213.332 309.638 213.455 309.219 213.701C308.799 213.932 308.466 214.258 308.22 214.677C307.989 215.083 307.837 215.546 307.764 216.067C307.735 216.255 307.656 216.385 307.526 216.458C307.41 216.53 307.301 216.566 307.2 216.566H306.071C305.941 216.566 305.832 216.53 305.745 216.458C305.659 216.371 305.615 216.269 305.615 216.154C305.63 215.604 305.745 215.054 305.963 214.504C306.18 213.939 306.498 213.433 306.918 212.984C307.352 212.536 307.88 212.174 308.502 211.899C309.139 211.609 309.877 211.465 310.717 211.465C311.86 211.465 312.793 211.674 313.517 212.094C314.255 212.499 314.798 213.042 315.145 213.722C315.493 214.403 315.666 215.148 315.666 215.958C315.666 216.595 315.558 217.181 315.341 217.717C315.123 218.238 314.805 218.751 314.385 219.258C313.98 219.75 313.474 220.257 312.866 220.778L308.698 225.011H315.471C315.63 225.011 315.753 225.054 315.84 225.141C315.941 225.228 315.992 225.351 315.992 225.51V226.4C315.992 226.545 315.941 226.668 315.84 226.769C315.753 226.856 315.63 226.899 315.471 226.899H305.897ZM323.067 226.899C322.922 226.899 322.799 226.856 322.698 226.769C322.611 226.668 322.568 226.545 322.568 226.4V214.243L318.964 217.022C318.848 217.109 318.725 217.145 318.595 217.131C318.465 217.116 318.356 217.051 318.269 216.935L317.705 216.219C317.618 216.089 317.582 215.958 317.596 215.828C317.625 215.698 317.698 215.589 317.813 215.502L322.546 211.855C322.647 211.783 322.741 211.74 322.828 211.725C322.915 211.711 323.009 211.703 323.11 211.703H324.217C324.362 211.703 324.478 211.754 324.565 211.855C324.652 211.942 324.695 212.058 324.695 212.203V226.4C324.695 226.545 324.652 226.668 324.565 226.769C324.478 226.856 324.362 226.899 324.217 226.899H323.067ZM327.815 228.527C327.699 228.527 327.605 228.484 327.533 228.397C327.475 228.31 327.453 228.202 327.468 228.072L327.967 224.967C327.996 224.794 328.054 224.649 328.141 224.533C328.242 224.403 328.387 224.338 328.575 224.338H330.029C330.131 224.338 330.21 224.374 330.268 224.446C330.341 224.519 330.377 224.605 330.377 224.707C330.377 224.823 330.348 224.938 330.29 225.054L329.161 228.028C329.103 228.173 329.024 228.289 328.922 228.375C328.836 228.477 328.705 228.527 328.532 228.527H327.815ZM338.236 227.116C337.324 227.116 336.528 227.008 335.848 226.791C335.168 226.559 334.596 226.255 334.133 225.879C333.67 225.503 333.315 225.09 333.069 224.642C332.838 224.193 332.715 223.73 332.7 223.252C332.7 223.122 332.744 223.021 332.83 222.948C332.917 222.876 333.026 222.84 333.156 222.84H334.22C334.35 222.84 334.466 222.869 334.567 222.927C334.668 222.985 334.755 223.108 334.828 223.296C334.972 223.817 335.218 224.222 335.566 224.511C335.927 224.801 336.34 225.003 336.803 225.119C337.281 225.221 337.758 225.271 338.236 225.271C339.234 225.271 340.045 225.032 340.667 224.555C341.289 224.077 341.601 223.375 341.601 222.449C341.601 221.508 341.318 220.835 340.754 220.43C340.189 220.025 339.408 219.822 338.409 219.822H336.347C336.202 219.822 336.079 219.779 335.978 219.692C335.891 219.605 335.848 219.482 335.848 219.323V218.737C335.848 218.607 335.87 218.498 335.913 218.411C335.971 218.31 336.029 218.223 336.087 218.151L340.298 213.549H333.894C333.749 213.549 333.626 213.505 333.525 213.418C333.438 213.332 333.395 213.209 333.395 213.049V212.224C333.395 212.065 333.438 211.942 333.525 211.855C333.626 211.754 333.749 211.703 333.894 211.703H342.556C342.715 211.703 342.838 211.754 342.925 211.855C343.026 211.942 343.077 212.065 343.077 212.224V213.006C343.077 213.107 343.048 213.201 342.99 213.288C342.946 213.361 342.896 213.433 342.838 213.505L338.648 218.173L338.996 218.194C339.951 218.223 340.783 218.397 341.492 218.715C342.216 219.034 342.773 219.511 343.164 220.148C343.569 220.77 343.771 221.559 343.771 222.514C343.771 223.484 343.533 224.316 343.055 225.011C342.577 225.691 341.919 226.212 341.08 226.574C340.24 226.935 339.292 227.116 338.236 227.116ZM353.509 226.899C353.365 226.899 353.242 226.856 353.14 226.769C353.054 226.668 353.01 226.545 353.01 226.4V223.274H345.977C345.832 223.274 345.709 223.231 345.608 223.144C345.521 223.042 345.477 222.919 345.477 222.775V221.906C345.477 221.848 345.492 221.762 345.521 221.646C345.564 221.516 345.629 221.385 345.716 221.255L352.229 212.072C352.402 211.826 352.67 211.703 353.032 211.703H354.595C354.74 211.703 354.855 211.754 354.942 211.855C355.043 211.942 355.094 212.058 355.094 212.203V221.385H357.048C357.207 221.385 357.33 221.436 357.417 221.537C357.518 221.624 357.569 221.74 357.569 221.885V222.775C357.569 222.919 357.518 223.042 357.417 223.144C357.33 223.231 357.214 223.274 357.07 223.274H355.094V226.4C355.094 226.545 355.043 226.668 354.942 226.769C354.855 226.856 354.74 226.899 354.595 226.899H353.509ZM347.8 221.429H353.032V213.983L347.8 221.429ZM364.626 227.116C363.483 227.116 362.513 226.921 361.717 226.53C360.936 226.125 360.335 225.604 359.915 224.967C359.51 224.33 359.293 223.658 359.264 222.948C359.25 222.818 359.286 222.717 359.373 222.644C359.46 222.572 359.568 222.536 359.698 222.536H360.871C361.001 222.536 361.117 222.565 361.218 222.623C361.319 222.681 361.399 222.804 361.457 222.992C361.601 223.527 361.833 223.969 362.151 224.316C362.484 224.649 362.861 224.895 363.28 225.054C363.714 225.199 364.163 225.271 364.626 225.271C365.248 225.271 365.813 225.148 366.319 224.902C366.84 224.642 367.253 224.265 367.557 223.773C367.861 223.267 368.013 222.659 368.013 221.95C368.013 221.299 367.861 220.741 367.557 220.278C367.267 219.801 366.862 219.439 366.341 219.193C365.835 218.932 365.263 218.802 364.626 218.802C364.149 218.802 363.758 218.86 363.454 218.976C363.15 219.092 362.889 219.229 362.672 219.388C362.47 219.547 362.282 219.685 362.108 219.801C361.949 219.916 361.768 219.974 361.565 219.974H360.436C360.306 219.974 360.19 219.931 360.089 219.844C359.988 219.743 359.944 219.627 359.959 219.497L360.654 212.246C360.668 212.072 360.719 211.942 360.805 211.855C360.907 211.754 361.037 211.703 361.196 211.703H368.772C368.917 211.703 369.033 211.754 369.12 211.855C369.221 211.942 369.272 212.058 369.272 212.203V213.049C369.272 213.209 369.221 213.332 369.12 213.418C369.033 213.505 368.917 213.549 368.772 213.549H362.52L362.108 217.825C362.311 217.695 362.636 217.543 363.085 217.369C363.533 217.181 364.149 217.087 364.93 217.087C365.639 217.087 366.305 217.196 366.927 217.413C367.564 217.63 368.128 217.948 368.62 218.368C369.113 218.788 369.496 219.301 369.771 219.909C370.046 220.503 370.183 221.19 370.183 221.971C370.183 223.071 369.937 224.005 369.445 224.772C368.968 225.539 368.309 226.125 367.47 226.53C366.645 226.921 365.697 227.116 364.626 227.116Z" fill="#E8E8E8"/>
</svg>
