<svg width="96" height="43" viewBox="0 0 96 43" fill="none" xmlns="http://www.w3.org/2000/svg">
<path d="M9.55442 37.337C8.11393 37.337 6.87922 37.1126 5.8503 36.6636C4.82138 36.2333 3.97018 35.6346 3.2967 34.8676C2.62322 34.1006 2.12747 33.2307 1.80944 32.2579C1.49141 31.2851 1.33239 30.2655 1.33239 29.1992C1.33239 28.2638 1.46335 27.3004 1.72525 26.3089C1.98716 25.3174 2.39873 24.3633 2.95996 23.4466C3.14704 23.1286 3.32476 22.9415 3.49313 22.8854C3.6615 22.8105 3.86729 22.8105 4.11049 22.8854L6.01867 23.5588C6.35541 23.6711 6.53313 23.8207 6.55184 24.0078C6.57055 24.1762 6.50507 24.4194 6.35541 24.7374C5.98126 25.4483 5.70064 26.1124 5.51356 26.7298C5.32649 27.3471 5.23295 27.9738 5.23295 28.6099C5.23295 29.4143 5.40132 30.1346 5.73806 30.7706C6.0935 31.4254 6.62667 31.9305 7.33756 32.286C8.04845 32.6601 8.96513 32.8472 10.0876 32.8472H11.9677C13.2211 32.8472 14.1846 32.7256 14.8581 32.4824C15.5502 32.2392 15.8963 31.8744 15.8963 31.388C15.8963 31.0887 15.8028 30.8548 15.6157 30.6865C15.4286 30.5181 15.1667 30.4339 14.83 30.4339H13.1744C12.7628 30.4339 12.557 30.2188 12.557 29.7885V26.6456C12.557 26.2153 12.7628 26.0002 13.1744 26.0002H20.1336C20.4142 26.0002 20.5545 26.1405 20.5545 26.4211V29.9288C20.5545 30.4526 20.2739 30.7145 19.7127 30.7145H18.478L17.4117 29.1431C18.1038 29.4798 18.5809 29.8259 18.8428 30.1814C19.1234 30.5368 19.2637 30.9951 19.2637 31.5564C19.2637 32.4918 19.0953 33.3149 18.7586 34.0258C18.4406 34.7554 17.9635 35.3634 17.3275 35.8498C16.6914 36.3362 15.9057 36.701 14.9703 36.9442C14.0349 37.2061 12.9592 37.337 11.7432 37.337H9.55442ZM9.18962 42.5004C9.07738 42.6126 8.93707 42.6594 8.7687 42.6407C8.60033 42.6407 8.45067 42.5846 8.31972 42.4723L6.97276 41.1254C6.86052 40.9944 6.79504 40.8447 6.77633 40.6764C6.77633 40.508 6.84181 40.3677 6.97276 40.2554L8.31972 38.9085C8.45067 38.7775 8.59098 38.7121 8.74064 38.7121C8.90901 38.7121 9.05867 38.7775 9.18962 38.9085L10.5085 40.2554C10.6395 40.3677 10.7049 40.508 10.7049 40.6764C10.7237 40.8634 10.6675 41.0225 10.5366 41.1534L9.18962 42.5004ZM13.0902 42.5004C12.9779 42.6126 12.8376 42.6594 12.6693 42.6407C12.5196 42.6407 12.3793 42.5846 12.2483 42.4723L10.8733 41.1254C10.7611 40.9944 10.6956 40.8447 10.6769 40.6764C10.6769 40.508 10.7424 40.3677 10.8733 40.2554L12.2483 38.9085C12.3793 38.7775 12.5196 38.7121 12.6693 38.7121C12.8189 38.7121 12.9499 38.7775 13.0621 38.9085L14.4091 40.2554C14.54 40.3677 14.6055 40.508 14.6055 40.6764C14.6242 40.8634 14.5681 41.0225 14.4371 41.1534L13.0902 42.5004ZM19.7169 30.7145C19.4363 30.7145 19.2959 30.5742 19.2959 30.2936V26.842C19.2959 26.2808 19.5766 26.0002 20.1378 26.0002H20.3342C21.0825 26.0002 21.6251 25.8131 21.9618 25.439C22.2985 25.0648 22.4669 24.3913 22.4669 23.4185V20.7527C22.4669 20.2289 22.7101 19.967 23.1965 19.967H25.4975C25.9839 19.967 26.2271 20.2289 26.2271 20.7527V23.4185C26.2271 24.41 26.4329 25.0929 26.8445 25.467C27.2748 25.8225 27.9389 26.0002 28.8369 26.0002H29.1175C29.3981 26.0002 29.5384 26.1405 29.5384 26.4211V29.8727C29.5384 30.4339 29.2578 30.7145 28.6966 30.7145C27.7238 30.7145 26.8164 30.5368 25.9746 30.1814C25.1327 29.8072 24.4593 29.1524 23.9542 28.217C23.5239 29.2086 22.9252 29.8727 22.1582 30.2094C21.4099 30.5462 20.5961 30.7145 19.7169 30.7145ZM24.6276 36.2707C24.4967 36.383 24.3377 36.4297 24.1506 36.411C23.9822 36.411 23.8326 36.3549 23.7016 36.2426L22.2985 34.8396C22.1863 34.7086 22.1302 34.559 22.1302 34.3906C22.1302 34.2222 22.1863 34.0632 22.2985 33.9135L23.7016 32.5105C23.8326 32.3795 23.9822 32.314 24.1506 32.314C24.319 32.314 24.4686 32.3795 24.5996 32.5105L25.9746 33.9135C26.1243 34.0632 26.1991 34.2222 26.1991 34.3906C26.2178 34.559 26.1617 34.718 26.0307 34.8676L24.6276 36.2707ZM28.7053 30.7145C28.4247 30.7145 28.2844 30.5742 28.2844 30.2936V26.842C28.2844 26.2808 28.565 26.0002 29.1262 26.0002H29.3227C30.071 26.0002 30.6135 25.8131 30.9502 25.439C31.287 25.0648 31.4554 24.3913 31.4554 23.4185V20.7527C31.4554 20.2289 31.6986 19.967 32.185 19.967H34.486C34.9724 19.967 35.2156 20.2289 35.2156 20.7527V23.4185C35.2156 24.41 35.4214 25.0929 35.833 25.467C36.2632 25.8225 36.9274 26.0002 37.8253 26.0002H38.1059C38.3866 26.0002 38.5269 26.1405 38.5269 26.4211V29.8727C38.5269 30.4339 38.2463 30.7145 37.685 30.7145C36.7122 30.7145 35.8049 30.5368 34.9631 30.1814C34.1212 29.8072 33.4477 29.1524 32.9426 28.217C32.5123 29.2086 31.9137 29.8727 31.1467 30.2094C30.3984 30.5462 29.5846 30.7145 28.7053 30.7145ZM31.5957 17.5256C31.4834 17.6378 31.3338 17.694 31.1467 17.694C30.9783 17.694 30.8286 17.6285 30.6977 17.4975L29.2946 16.0945C29.1824 15.9635 29.1169 15.8138 29.0982 15.6455C29.0982 15.4771 29.1637 15.3181 29.2946 15.1684L30.6977 13.7654C30.8286 13.6344 30.9783 13.5689 31.1467 13.5689C31.315 13.5689 31.4647 13.6344 31.5957 13.7654L32.9987 15.1684C33.1297 15.3181 33.1952 15.4865 33.1952 15.6735C33.2139 15.8419 33.1578 15.9916 33.0268 16.1225L31.5957 17.5256ZM35.9171 17.5256C35.7862 17.6566 35.6365 17.7127 35.4682 17.694C35.2998 17.6753 35.1501 17.6098 35.0192 17.4975L33.588 16.0945C33.4758 15.9635 33.4197 15.8138 33.4197 15.6455C33.4197 15.4584 33.4758 15.2994 33.588 15.1684L35.0192 13.7654C35.1501 13.6344 35.2904 13.5689 35.4401 13.5689C35.6085 13.5689 35.7581 13.6344 35.8891 13.7654L37.2922 15.1684C37.4418 15.3181 37.5167 15.4771 37.5167 15.6455C37.5354 15.8138 37.4699 15.9729 37.3202 16.1225L35.9171 17.5256ZM37.6938 30.7145C37.4132 30.7145 37.2729 30.5742 37.2729 30.2936V26.842C37.2729 26.2808 37.5535 26.0002 38.1147 26.0002H45.1582C45.8503 26.0002 46.3461 25.8692 46.6454 25.6073C46.9447 25.3267 47.0944 24.9526 47.0944 24.4849C47.0944 24.1855 46.9728 23.9143 46.7296 23.6711C46.5051 23.4092 46.1964 23.1566 45.8036 22.9134L40.0229 19.1251C39.7423 18.9567 39.5178 18.7603 39.3494 18.5358C39.1998 18.3113 39.1249 17.9746 39.1249 17.5256V14.5791C39.1249 14.1302 39.1904 13.8121 39.3214 13.625C39.471 13.438 39.6955 13.2883 39.9948 13.1761L50.4618 8.93877C50.7237 8.84523 50.9201 8.85458 51.0511 8.96683C51.2007 9.06037 51.2662 9.24744 51.2475 9.52806V11.9414C51.2475 12.2033 51.1914 12.4278 51.0791 12.6148C50.9856 12.8019 50.8172 12.9422 50.574 13.0358L42.352 16.2348L46.926 19.3496C47.8988 19.8547 48.6939 20.3598 49.3113 20.8649C49.9286 21.37 50.387 21.9219 50.6863 22.5206C50.9856 23.1192 51.1353 23.8488 51.1353 24.7094C51.1353 25.9628 50.8359 27.0385 50.2373 27.9364C49.6574 28.8344 48.8623 29.5266 47.8521 30.013C46.8606 30.4807 45.7287 30.7145 44.4566 30.7145H37.6938Z" fill="#110F0F"/>
<path d="M64.4309 26.3077H59.1693M59.1693 36.8307H80.2155C81.8501 36.8307 82.6673 36.8307 83.311 36.5642C83.7369 36.3879 84.1238 36.1294 84.4497 35.8035C84.7756 35.4776 85.0341 35.0906 85.2104 34.6647C85.477 34.0211 85.477 33.2038 85.477 31.5692C85.477 29.9346 85.477 29.1173 85.2104 28.4737C85.0341 28.0478 84.7756 27.6608 84.4497 27.3349C84.1238 27.009 83.7369 26.7505 83.311 26.5743C82.6673 26.3077 81.8501 26.3077 80.2155 26.3077H76.7078H85.477C87.1116 26.3077 87.9289 26.3077 88.5725 26.0411C88.9984 25.8648 89.3854 25.6063 89.7113 25.2804C90.0372 24.9545 90.2957 24.5675 90.472 24.1417C90.7385 23.498 90.7385 22.6807 90.7385 21.0461C90.7385 19.4115 90.7385 18.5943 90.472 17.9506C90.2957 17.5247 90.0372 17.1378 89.7113 16.8119C89.3854 16.4859 88.9984 16.2275 88.5725 16.0512C87.9289 15.7846 87.1116 15.7846 85.477 15.7846H59.1693H78.4616C80.0962 15.7846 80.9135 15.7846 81.5572 15.518C81.983 15.3417 82.37 15.0832 82.6959 14.7573C83.0218 14.4314 83.2803 14.0445 83.4566 13.6186C83.7232 12.9749 83.7232 12.1576 83.7232 10.5231C83.7232 8.88847 83.7232 8.07117 83.4566 7.42751C83.2803 7.00165 83.0218 6.6147 82.6959 6.28878C82.37 5.96287 81.983 5.70438 81.5572 5.5281C80.9135 5.26151 80.0962 5.26151 78.4616 5.26151H59.1693" stroke="#674FCD" stroke-width="2.63077" stroke-linecap="round" stroke-linejoin="round"/>
<path d="M76.7078 15.7846V26.6409C76.7078 28.5964 76.7078 29.5733 76.136 29.7803C75.5625 29.9907 74.9153 29.2471 73.6228 27.7633L72.7774 26.7952C72.1583 26.0849 71.8496 25.7306 71.4462 25.7306C71.0428 25.7306 70.7342 26.0849 70.1133 26.7952L69.2715 27.7633C67.9771 29.2471 67.33 29.9907 66.7582 29.7803C66.1847 29.5733 66.1847 28.5964 66.1847 26.6409V15.7846" stroke="#674FCD" stroke-width="2.63077" stroke-linecap="round" stroke-linejoin="round"/>
</svg>
