<svg width="22" height="22" viewBox="0 0 22 22" fill="none" xmlns="http://www.w3.org/2000/svg">
<path d="M8.24992 20.1667H13.7499C18.3333 20.1667 20.1666 18.3333 20.1666 13.75V8.25001C20.1666 3.66668 18.3333 1.83334 13.7499 1.83334H8.24992C3.66659 1.83334 1.83325 3.66668 1.83325 8.25001V13.75C1.83325 18.3333 3.66659 20.1667 8.24992 20.1667Z" stroke="#CFD0D6" stroke-width="1.5" stroke-linecap="round" stroke-linejoin="round"/>
<path d="M15.5834 2.23666V11.385C15.5834 13.1908 14.2909 13.8967 12.7051 12.9433L11.4951 12.2192C11.2201 12.0542 10.7801 12.0542 10.5051 12.2192L9.29508 12.9433C7.70925 13.8875 6.41675 13.1908 6.41675 11.385V2.23666" stroke="#CFD0D6" stroke-width="1.5" stroke-linecap="round" stroke-linejoin="round"/>
<path d="M8.24992 20.1667H13.7499C18.3333 20.1667 20.1666 18.3333 20.1666 13.75V8.25001C20.1666 3.66668 18.3333 1.83334 13.7499 1.83334H8.24992C3.66659 1.83334 1.83325 3.66668 1.83325 8.25001V13.75C1.83325 18.3333 3.66659 20.1667 8.24992 20.1667Z" stroke="#CFD0D6" stroke-width="1.5" stroke-linecap="round" stroke-linejoin="round"/>
<path d="M15.5834 2.23666V11.385C15.5834 13.1908 14.2909 13.8967 12.7051 12.9433L11.4951 12.2192C11.2201 12.0542 10.7801 12.0542 10.5051 12.2192L9.29508 12.9433C7.70925 13.8875 6.41675 13.1908 6.41675 11.385V2.23666" stroke="#CFD0D6" stroke-width="1.5" stroke-linecap="round" stroke-linejoin="round"/>
</svg>
