<svg width="17" height="17" viewBox="0 0 17 17" fill="none" xmlns="http://www.w3.org/2000/svg">
<path d="M8.19345 1.72583H6.83862C3.45152 1.72583 2.09668 3.08067 2.09668 6.46777V10.5323C2.09668 13.9194 3.45152 15.2742 6.83862 15.2742H10.9031C14.2902 15.2742 15.6451 13.9194 15.6451 10.5323V9.17744" stroke="#F9F9F9" stroke-width="1.01613" stroke-linecap="round" stroke-linejoin="round"/>
<path d="M11.6077 2.41682L6.26961 7.75488C6.06639 7.95811 5.86316 8.35779 5.82252 8.64908L5.53123 10.6881C5.42284 11.4265 5.94445 11.9413 6.68284 11.8397L8.72187 11.5484C9.00639 11.5078 9.40607 11.3046 9.61607 11.1013L14.9541 5.76327C15.8754 4.84198 16.309 3.77166 14.9541 2.41682C13.5993 1.06198 12.529 1.49553 11.6077 2.41682Z" stroke="#F9F9F9" stroke-width="1.01613" stroke-miterlimit="10" stroke-linecap="round" stroke-linejoin="round"/>
<path d="M10.8422 3.18213C11.296 4.80116 12.5628 6.06794 14.1886 6.52858" stroke="#F9F9F9" stroke-width="1.01613" stroke-miterlimit="10" stroke-linecap="round" stroke-linejoin="round"/>
</svg>
