<svg width="96" height="43" viewBox="0 0 96 43" fill="none" xmlns="http://www.w3.org/2000/svg">
<path d="M9.55445 37.337C8.11396 37.337 6.87925 37.1126 5.85033 36.6636C4.82141 36.2333 3.97021 35.6346 3.29673 34.8676C2.62325 34.1006 2.1275 33.2307 1.80947 32.2579C1.49144 31.2851 1.33242 30.2655 1.33242 29.1992C1.33242 28.2638 1.46338 27.3004 1.72529 26.3089C1.98719 25.3174 2.39876 24.3633 2.95999 23.4466C3.14707 23.1286 3.32479 22.9415 3.49316 22.8854C3.66153 22.8105 3.86732 22.8105 4.11052 22.8854L6.0187 23.5588C6.35544 23.6711 6.53316 23.8207 6.55187 24.0078C6.57058 24.1762 6.5051 24.4194 6.35544 24.7374C5.98129 25.4483 5.70067 26.1124 5.51359 26.7298C5.32652 27.3471 5.23298 27.9738 5.23298 28.6099C5.23298 29.4143 5.40135 30.1346 5.73809 30.7706C6.09353 31.4254 6.6267 31.9305 7.33759 32.286C8.04849 32.6601 8.96516 32.8472 10.0876 32.8472H11.9677C13.2212 32.8472 14.1846 32.7256 14.8581 32.4824C15.5503 32.2392 15.8964 31.8744 15.8964 31.388C15.8964 31.0887 15.8028 30.8548 15.6157 30.6865C15.4287 30.5181 15.1668 30.4339 14.83 30.4339H13.1744C12.7628 30.4339 12.557 30.2188 12.557 29.7885V26.6456C12.557 26.2153 12.7628 26.0002 13.1744 26.0002H20.1337C20.4143 26.0002 20.5546 26.1405 20.5546 26.4211V29.9288C20.5546 30.4526 20.274 30.7145 19.7127 30.7145H18.478L17.4117 29.1431C18.1039 29.4798 18.5809 29.8259 18.8428 30.1814C19.1234 30.5368 19.2637 30.9951 19.2637 31.5564C19.2637 32.4918 19.0954 33.3149 18.7586 34.0258C18.4406 34.7554 17.9636 35.3634 17.3275 35.8498C16.6914 36.3362 15.9057 36.701 14.9703 36.9442C14.0349 37.2061 12.9593 37.337 11.7433 37.337H9.55445ZM9.18966 42.5004C9.07741 42.6126 8.9371 42.6594 8.76873 42.6407C8.60036 42.6407 8.4507 42.5846 8.31975 42.4723L6.97279 41.1254C6.86055 40.9944 6.79507 40.8447 6.77636 40.6764C6.77636 40.508 6.84184 40.3677 6.97279 40.2554L8.31975 38.9085C8.4507 38.7775 8.59101 38.7121 8.74067 38.7121C8.90904 38.7121 9.0587 38.7775 9.18966 38.9085L10.5085 40.2554C10.6395 40.3677 10.705 40.508 10.705 40.6764C10.7237 40.8634 10.6676 41.0225 10.5366 41.1534L9.18966 42.5004ZM13.0902 42.5004C12.978 42.6126 12.8377 42.6594 12.6693 42.6407C12.5196 42.6407 12.3793 42.5846 12.2484 42.4723L10.8733 41.1254C10.7611 40.9944 10.6956 40.8447 10.6769 40.6764C10.6769 40.508 10.7424 40.3677 10.8733 40.2554L12.2484 38.9085C12.3793 38.7775 12.5196 38.7121 12.6693 38.7121C12.8189 38.7121 12.9499 38.7775 13.0621 38.9085L14.4091 40.2554C14.5401 40.3677 14.6055 40.508 14.6055 40.6764C14.6242 40.8634 14.5681 41.0225 14.4372 41.1534L13.0902 42.5004ZM19.7169 30.7145C19.4363 30.7145 19.296 30.5742 19.296 30.2936V26.842C19.296 26.2808 19.5766 26.0002 20.1378 26.0002H20.3343C21.0826 26.0002 21.6251 25.8131 21.9618 25.439C22.2986 25.0648 22.4669 24.3913 22.4669 23.4185V20.7527C22.4669 20.2289 22.7101 19.967 23.1965 19.967H25.4976C25.984 19.967 26.2272 20.2289 26.2272 20.7527V23.4185C26.2272 24.41 26.433 25.0929 26.8445 25.467C27.2748 25.8225 27.9389 26.0002 28.8369 26.0002H29.1175C29.3981 26.0002 29.5384 26.1405 29.5384 26.4211V29.8727C29.5384 30.4339 29.2578 30.7145 28.6966 30.7145C27.7238 30.7145 26.8165 30.5368 25.9746 30.1814C25.1328 29.8072 24.4593 29.1524 23.9542 28.217C23.5239 29.2086 22.9253 29.8727 22.1583 30.2094C21.4099 30.5462 20.5962 30.7145 19.7169 30.7145ZM24.6277 36.2707C24.4967 36.383 24.3377 36.4297 24.1506 36.411C23.9823 36.411 23.8326 36.3549 23.7016 36.2426L22.2986 34.8396C22.1863 34.7086 22.1302 34.559 22.1302 34.3906C22.1302 34.2222 22.1863 34.0632 22.2986 33.9135L23.7016 32.5105C23.8326 32.3795 23.9823 32.314 24.1506 32.314C24.319 32.314 24.4687 32.3795 24.5996 32.5105L25.9746 33.9135C26.1243 34.0632 26.1991 34.2222 26.1991 34.3906C26.2178 34.559 26.1617 34.718 26.0307 34.8676L24.6277 36.2707ZM28.7054 30.7145C28.4247 30.7145 28.2844 30.5742 28.2844 30.2936V26.842C28.2844 26.2808 28.565 26.0002 29.1263 26.0002H29.3227C30.071 26.0002 30.6135 25.8131 30.9503 25.439C31.287 25.0648 31.4554 24.3913 31.4554 23.4185V20.7527C31.4554 20.2289 31.6986 19.967 32.185 19.967H34.486C34.9724 19.967 35.2156 20.2289 35.2156 20.7527V23.4185C35.2156 24.41 35.4214 25.0929 35.833 25.467C36.2633 25.8225 36.9274 26.0002 37.8254 26.0002H38.106C38.3866 26.0002 38.5269 26.1405 38.5269 26.4211V29.8727C38.5269 30.4339 38.2463 30.7145 37.6851 30.7145C36.7123 30.7145 35.8049 30.5368 34.9631 30.1814C34.1212 29.8072 33.4478 29.1524 32.9426 28.217C32.5124 29.2086 31.9137 29.8727 31.1467 30.2094C30.3984 30.5462 29.5846 30.7145 28.7054 30.7145ZM31.5957 17.5256C31.4834 17.6378 31.3338 17.694 31.1467 17.694C30.9783 17.694 30.8287 17.6285 30.6977 17.4975L29.2946 16.0945C29.1824 15.9635 29.1169 15.8138 29.0982 15.6455C29.0982 15.4771 29.1637 15.3181 29.2946 15.1684L30.6977 13.7654C30.8287 13.6344 30.9783 13.5689 31.1467 13.5689C31.3151 13.5689 31.4647 13.6344 31.5957 13.7654L32.9988 15.1684C33.1297 15.3181 33.1952 15.4865 33.1952 15.6735C33.2139 15.8419 33.1578 15.9916 33.0268 16.1225L31.5957 17.5256ZM35.9172 17.5256C35.7862 17.6566 35.6366 17.7127 35.4682 17.694C35.2998 17.6753 35.1502 17.6098 35.0192 17.4975L33.5881 16.0945C33.4758 15.9635 33.4197 15.8138 33.4197 15.6455C33.4197 15.4584 33.4758 15.2994 33.5881 15.1684L35.0192 13.7654C35.1502 13.6344 35.2905 13.5689 35.4401 13.5689C35.6085 13.5689 35.7582 13.6344 35.8891 13.7654L37.2922 15.1684C37.4419 15.3181 37.5167 15.4771 37.5167 15.6455C37.5354 15.8138 37.4699 15.9729 37.3203 16.1225L35.9172 17.5256ZM37.6938 30.7145C37.4132 30.7145 37.2729 30.5742 37.2729 30.2936V26.842C37.2729 26.2808 37.5535 26.0002 38.1147 26.0002H45.1582C45.8504 26.0002 46.3461 25.8692 46.6455 25.6073C46.9448 25.3267 47.0944 24.9526 47.0944 24.4849C47.0944 24.1855 46.9728 23.9143 46.7296 23.6711C46.5051 23.4092 46.1965 23.1566 45.8036 22.9134L40.0229 19.1251C39.7423 18.9567 39.5178 18.7603 39.3495 18.5358C39.1998 18.3113 39.125 17.9746 39.125 17.5256V14.5791C39.125 14.1302 39.1904 13.8121 39.3214 13.625C39.4711 13.438 39.6955 13.2883 39.9949 13.1761L50.4618 8.93877C50.7237 8.84523 50.9202 8.85458 51.0511 8.96683C51.2008 9.06037 51.2663 9.24744 51.2475 9.52806V11.9414C51.2475 12.2033 51.1914 12.4278 51.0792 12.6148C50.9856 12.8019 50.8173 12.9422 50.5741 13.0358L42.352 16.2348L46.9261 19.3496C47.8989 19.8547 48.6939 20.3598 49.3113 20.8649C49.9287 21.37 50.387 21.9219 50.6863 22.5206C50.9856 23.1192 51.1353 23.8488 51.1353 24.7094C51.1353 25.9628 50.836 27.0385 50.2373 27.9364C49.6574 28.8344 48.8623 29.5266 47.8521 30.013C46.8606 30.4807 45.7288 30.7145 44.4567 30.7145H37.6938Z" fill="white"/>
<path d="M64.4308 26.3077H59.1692M59.1692 36.8307H80.2154C81.85 36.8307 82.6672 36.8307 83.3109 36.5642C83.7368 36.3879 84.1237 36.1294 84.4496 35.8035C84.7756 35.4776 85.034 35.0906 85.2103 34.6647C85.4769 34.0211 85.4769 33.2038 85.4769 31.5692C85.4769 29.9346 85.4769 29.1173 85.2103 28.4737C85.034 28.0478 84.7756 27.6608 84.4496 27.3349C84.1237 27.009 83.7368 26.7505 83.3109 26.5743C82.6672 26.3077 81.85 26.3077 80.2154 26.3077H76.7077H85.4769C87.1115 26.3077 87.9288 26.3077 88.5724 26.0411C88.9983 25.8648 89.3853 25.6063 89.7112 25.2804C90.0371 24.9545 90.2956 24.5675 90.4719 24.1417C90.7385 23.498 90.7385 22.6807 90.7385 21.0461C90.7385 19.4115 90.7385 18.5943 90.4719 17.9506C90.2956 17.5247 90.0371 17.1378 89.7112 16.8119C89.3853 16.4859 88.9983 16.2275 88.5724 16.0512C87.9288 15.7846 87.1115 15.7846 85.4769 15.7846H59.1692H78.4615C80.0961 15.7846 80.9134 15.7846 81.5571 15.518C81.9829 15.3417 82.3699 15.0832 82.6958 14.7573C83.0217 14.4314 83.2802 14.0445 83.4565 13.6186C83.7231 12.9749 83.7231 12.1576 83.7231 10.5231C83.7231 8.88847 83.7231 8.07117 83.4565 7.42751C83.2802 7.00165 83.0217 6.6147 82.6958 6.28878C82.3699 5.96287 81.9829 5.70438 81.5571 5.5281C80.9134 5.26151 80.0961 5.26151 78.4615 5.26151H59.1692" stroke="white" stroke-width="2.63077" stroke-linecap="round" stroke-linejoin="round"/>
<path d="M76.7077 15.7846V26.6409C76.7077 28.5964 76.7077 29.5733 76.1359 29.7803C75.5624 29.9907 74.9152 29.2471 73.6227 27.7633L72.7773 26.7952C72.1582 26.0849 71.8495 25.7306 71.4461 25.7306C71.0428 25.7306 70.7341 26.0849 70.1132 26.7952L69.2714 27.7633C67.977 29.2471 67.3299 29.9907 66.7581 29.7803C66.1846 29.5733 66.1846 28.5964 66.1846 26.6409V15.7846" stroke="white" stroke-width="2.63077" stroke-linecap="round" stroke-linejoin="round"/>
</svg>
