<svg width="22" height="22" viewBox="0 0 22 22" fill="none" xmlns="http://www.w3.org/2000/svg">
<path d="M8.3966 9.96418C8.30493 9.95501 8.19493 9.95501 8.0941 9.96418C5.91243 9.89084 4.17993 8.10334 4.17993 5.90334C4.17993 3.65751 5.99493 1.83334 8.24993 1.83334C10.4958 1.83334 12.3199 3.65751 12.3199 5.90334C12.3108 8.10334 10.5783 9.89084 8.3966 9.96418Z" stroke="#CFD0D6" stroke-width="1.5" stroke-linecap="round" stroke-linejoin="round"/>
<path d="M15.0425 3.66666C16.8208 3.66666 18.2508 5.10582 18.2508 6.87499C18.2508 8.60749 16.8758 10.0192 15.1617 10.0833C15.0883 10.0742 15.0058 10.0742 14.9233 10.0833" stroke="#CFD0D6" stroke-width="1.5" stroke-linecap="round" stroke-linejoin="round"/>
<path d="M3.81341 13.3467C1.59507 14.8317 1.59507 17.2517 3.81341 18.7275C6.33424 20.4142 10.4684 20.4142 12.9892 18.7275C15.2076 17.2425 15.2076 14.8225 12.9892 13.3467C10.4776 11.6692 6.34341 11.6692 3.81341 13.3467Z" stroke="#CFD0D6" stroke-width="1.5" stroke-linecap="round" stroke-linejoin="round"/>
<path d="M16.8118 18.3333C17.4718 18.1958 18.0951 17.93 18.6084 17.5358C20.0384 16.4633 20.0384 14.6942 18.6084 13.6217C18.1043 13.2367 17.4901 12.98 16.8393 12.8333" stroke="#CFD0D6" stroke-width="1.5" stroke-linecap="round" stroke-linejoin="round"/>
</svg>
